<?xml version="1.0" encoding="UTF-8"?>
<!-- Created with Inkscape (http://www.inkscape.org/) -->
<svg width="500" height="500" version="1.1" xmlns="http://www.w3.org/2000/svg">
 <g>
  <rect x="145" y="45" width="120" height="120" fill="#777777"/>
  <rect x="140" y="40" width="120" height="120" fill="#287cec"/>
  <rect x="155" y="155" width="125" height="120" fill="#777777"/>
  <rect x="150" y="150" width="120" height="120" fill="#eba571"/>
  <rect x="35" y="55" width="120" height="120" fill="#777777"/>
  <rect x="30" y="50" width="120" height="120" fill="#3c8a14"/>
  <rect x="165" y="95" width="120" height="120" fill="#777777"/>
  <rect x="160" y="90" width="120" height="120" fill="#3d7024"/>
  <rect x="335" y="155" width="120" height="120" fill="#777777"/>
  <rect x="330" y="150" width="120" height="120" fill="#512886"/>
  <rect x="285" y="195" width="120" height="120" fill="#777777"/>
  <rect x="280" y="190" width="120" height="120" fill="#fe7584"/>
  <rect x="225" y="225" width="120" height="120" fill="#777777"/>
  <rect x="220" y="220" width="120" height="120" fill="#ab17ad"/>
  <rect x="195" y="315" width="120" height="120" fill="#777777"/>
  <rect x="190" y="310" width="120" height="120" fill="#d29af9"/>
  <rect x="235" y="85" width="120" height="120" fill="#777777"/>
  <rect x="230" y="80" width="120" height="120" fill="#7ca3d6"/>
  <rect x="45" y="295" width="120" height="120" fill="#777777"/>
  <rect x="40" y="290" width="120" height="120" fill="#2ea388"/>
 </g>
</svg>
