<?xml version="1.0" encoding="UTF-8"?>
<svg class="iconify iconify--noto" width="800px" height="800px" aria-hidden="true" role="img" version="1.1" viewBox="0 0 128 128" xmlns="http://www.w3.org/2000/svg">
 <path d="M116 4H12c-4.42 0-8 3.58-8 8v104c0 4.42 3.58 8 8 8h104c4.42 0 8-3.58 8-8V12c0-4.42-3.58-8-8-8z" fill="#f77e00"/>
 <path d="M109.7 4H11.5A7.555 7.555 0 0 0 4 11.5v97.9c-.01 4.14 3.34 7.49 7.48 7.5H109.6c4.14.01 7.49-3.34 7.5-7.48V11.5c.09-4.05-3.13-7.41-7.18-7.5h-.22z" fill="#ff9800"/>
 <path d="m111 32.9-16-16a4.05 4.05 0 0 0-6.6 3.1v6.6c0.02 0.97-0.65 1.81-1.6 2a45.5 45.5 0 0 0-28.9 18.7 116 116 0 0 0-6.5 10.8c-7.3 13-15.5 27.7-31.5 29.7a3.99 3.99 0 0 0-3.5 4v8.1a4.06 4.06 0 0 0 4.08 4.02c0.11 0 0.21-0.01 0.32-0.02 24.6-2.4 36.6-23.6 44.6-37.9 1.71-3.19 3.58-6.3 5.6-9.3a28.9 28.9 0 0 1 14.8-11.3 2 2 0 0 1 2.6 1.9v4.8a4.05 4.05 0 0 0 4.1 4c0.91-0.01 1.8-0.33 2.5-0.9l16-16a4.19 4.19 0 0 0 0-6.3z" fill="#fafafa"/>
 <path d="m94.6 72.9a4.05 4.05 0 0 0-6.6 3.1v4.8c0 1.1-0.9 2-2.01 1.99-0.2 0-0.4-0.03-0.59-0.09a30.6 30.6 0 0 1-14.9-11.3c-0.4-0.6-0.8-1.2-1.3-1.9a1 1 0 0 0-1.7 0c-2.2 4-4.8 8.4-7.8 12.8-0.2 0.37-0.2 0.83 0 1.2a45.5 45.5 0 0 0 26.6 15.8c0.96 0.2 1.66 1.02 1.7 2v6.7a4.05 4.05 0 0 0 4.1 4c0.91-0.01 1.8-0.33 2.5-0.9l16-16a4.08 4.08 0 0 0 0-6.2l-16-16z" fill="#fafafa"/>
 <path d="M39.7 12.9c0-2.3-1.6-3-10.8-2.7c-7.7.3-11.5 1.2-13.8 4s-2.9 8.5-3 15.3c0 4.8 0 9.3 2.5 9.3c3.4 0 3.4-7.9 6.2-12.3c5.4-8.7 18.9-10.6 18.9-13.6z" fill="#ffbd52" opacity=".65"/>
 <path d="M19.6 40.2c11.4 1.4 18.9 9.3 24.8 18.5a1.003 1.003 0 0 0 1.7 0c1.9-3.3 6.5-11 7.8-13.1c.22-.35.18-.8-.1-1.1c-7.6-9.9-18-18.8-33.5-20.2a3.888 3.888 0 0 0-4.28 3.46c-.01.14-.02.29-.02.44v8.1c0 2.04 1.57 3.74 3.6 3.9z" fill="#fafafa"/>
 <path d="M39.7 12.9c0-2.3-1.6-3-10.8-2.7c-7.7.3-11.5 1.2-13.8 4s-2.9 8.5-3 15.3c0 4.8 0 9.3 2.5 9.3c3.4 0 3.4-7.9 6.2-12.3c5.4-8.7 18.9-10.6 18.9-13.6z" fill="#ffbd52" opacity=".3"/>
</svg>
