<?xml version="1.0" encoding="UTF-8"?>
<svg class="iconify iconify--noto" width="800px" height="800px" aria-hidden="true" role="img" version="1.1" viewBox="0 0 128 128" xmlns="http://www.w3.org/2000/svg">
 <linearGradient id="IconifyId17ecdb2904d178eab14565" x1="64" x2="64" y1="29.2" y2="93.7" gradientUnits="userSpaceOnUse">
  <stop stop-color="#374c57" offset=".369"/>
  <stop stop-color="#263238" offset=".546"/>
 </linearGradient>
 <path d="M100.82 98.25s17.91-2.78 22.86-34.1c1.63-10.32 1.14-25.1.72-28.82a.64.64 0 0 0-.9-.51s-6.82 3.71-9.39 3.22c-1.68-.32 12.52-5.65 9.57-29.09c-.19-1.53-.91-1.41-1.13-1.15c-1.72 1.96-6.95 7.7-9.9 8.47c0 0 1.94-5.97.21-11.94c-.1-.35-.51-.52-.85-.38c-12.84 5.58-13.83-2.45-29 5.98c-3.41 1.9-6.08 6.38-6.08 6.38S73.57 9.79 65.99 5.38C60.59 2.23 53 3.44 50.09 4.07c-.43.09-.54.65-.18.91c1.89 1.36 3.94 7.59 2.54 13.04C47.2 9.69 42.4 3.32 28.35 4.95c-5.05.58-10.64 3.3-18.49.9c-.59-.18-.96.19-.82.79c1.74 7.5 9.86 10.3 10.12 16.59c.03.71-.84 1.08-1.33.57c-2.05-2.13-6.56-6.18-12.09-7.1c-.49-.08-.95.44-.69.86c1.99 3.12 6.88 8.23 8.05 15.86c.15 1 .32 2.1-1.05 1.4c-1.37-.7-3.35-2.09-5.16-4.6c-.24-.33-1.6-1.6-2.11 1.76c-.9 5.88-5.05 35.99 5.19 50.92c11.83 17.26 17.37 16.26 17.37 16.26l73.48-.91z" fill="url(#IconifyId17ecdb2904d178eab14565)"/>
 <path d="M112.52 44.05c.73-.75 1.49-1.45 2.23-1.94c2.14-1.42 3.07.75 2.82 2.83c-.9 7.56 1.96 15.13 1.59 22.74c-.35 7.22-4.09 14.54-10.38 17.54c-.36.17-.79.33-1.15.14c-.39-.21-.5-.73-.56-1.18c-.69-4.76-.05-10.34-1.01-15.03c-.91-4.45-1.43-7.69-.69-12.36c.69-4.31 2.25-7.24 5-10.36c.65-.74 1.39-1.59 2.15-2.38z" fill="#c33"/>
 <path d="M15.26 44.05c-.73-.75-1.49-1.45-2.23-1.94c-2.14-1.42-3.07.75-2.82 2.83c.9 7.56-1.96 15.13-1.59 22.74c.35 7.22 4.09 14.54 10.38 17.54c.36.17.79.33 1.15.14c.39-.21.5-.73.56-1.18c.69-4.76.05-10.34 1.01-15.03c.91-4.45 1.43-7.69.69-12.36c-.69-4.31-2.25-7.24-5-10.36c-.65-.74-1.38-1.59-2.15-2.38z" fill="#c33"/>
 <path d="m103 47.5s13.7 21 13.7 42c0.03 15.3-15.2 32.2-15.2 32.2s-1.7-19.9-3.22-31.2 4.76-43 4.76-43z" fill="#374c57"/>
 <linearGradient id="IconifyId17ecdb2904d178eab14566" x1="103" x2="103" y1="119" y2="70.4" gradientUnits="userSpaceOnUse">
  <stop stop-color="#374c57" offset=".105"/>
  <stop stop-color="#263238" offset=".546"/>
 </linearGradient>
 <path d="m104 65.1s3.64 11.4 4.47 20.1c1.43 15.1-6.89 37.5-6.89 37.5l-3.79-26.2 4.19-19.5 2.02-11.9z" fill="url(#IconifyId17ecdb2904d178eab14566)"/>
 <path d="m26.5 45.8s-15.3 22.7-15.4 43.7c-0.03 15.3 15.2 32.2 15.2 32.2s1.7-19.9 3.22-31.2-3.1-44.7-3.1-44.7z" fill="#374c57"/>
 <linearGradient id="IconifyId17ecdb2904d178eab14567" x1="24.9" x2="24.9" y1="119" y2="70.4" gradientTransform="matrix(-1 0 0 1 49.8 0)" gradientUnits="userSpaceOnUse">
  <stop stop-color="#374c57" offset=".105"/>
  <stop stop-color="#263238" offset=".546"/>
 </linearGradient>
 <path d="m24 65.1s-3.64 11.4-4.47 20.1c-1.43 15.1 6.89 37.5 6.89 37.5l3.79-26.2-4.19-19.5-2.02-11.9z" fill="url(#IconifyId17ecdb2904d178eab14567)"/>
 <path d="m85.3 30.7c-9.58 0-14.1 3.55-21.3 3.58-7.15-0.03-11.7-3.58-21.3-3.58-17.9 0-21.4 43.3-21.4 45 0 32.3 21.4 49 42.7 49s42.7-16.6 42.7-49c0.02-1.73-3.48-45-21.4-45z" fill="#f04e3e"/>
 <path d="m98.2 62.3c0.57 6.73-3.98 13.2-11.8 14.6s-14.9-2.87-16.5-9.41c-2.75-10.9 3.91-13.6 11.8-14.6 8.32-1.02 16 2.42 16.5 9.41z" fill="#a81919"/>
 <ellipse transform="rotate(-14.9 83.5 67)" cx="83.5" cy="67" rx="9.81" ry="8.92" fill="#ffecb3"/>
 <ellipse transform="rotate(-4.09 83.2 67.4)" cx="83.2" cy="67.5" rx="4.06" ry="4.3" fill="#212121"/>
 <path d="m30.4 62.3c-0.57 6.73 3.98 13.2 11.8 14.6s14.9-2.87 16.5-9.41c2.75-10.9-3.91-13.6-11.8-14.6-8.32-1.02-15.9 2.42-16.5 9.41z" fill="#a81919"/>
 <ellipse transform="rotate(-75.1 45.2 67)" cx="45.2" cy="67" rx="8.92" ry="9.81" fill="#ffecb3"/>
 <ellipse transform="rotate(-85.9 45.4 67.5)" cx="45.4" cy="67.5" rx="4.3" ry="4.06" fill="#212121"/>
 <path d="M92.39 89.75a3 3 0 0 0-.92.15c-5.27 1.71-15.63 4.51-27.58 4.51s-22.31-2.79-27.58-4.51a3 3 0 0 0-.92-.15c-1.75 0-3.28.79-2.83 2.59c.99 3.96 3.8 11.15 6.62 14.88c4.92 6.52 7.64 8.59 11.61 8.69c.18 0 .35.01.52.01c4.99 0 5.91-1.8 12.59-1.8s7.6 1.8 12.59 1.8c.17 0 .34 0 .52-.01c3.97-.09 6.68-2.16 11.61-8.69c2.82-3.73 5.82-10.65 6.62-14.94c.44-1.79-1.09-2.53-2.85-2.53z" fill="#281010"/>
 <g fill="#fff8e1">
  <path d="m60.6 101v-3.85h6.38v3.85c0 1.76-1.43 2.53-3.19 2.53s-3.19-0.77-3.19-2.53z"/>
  <path d="M51.83 99.98c.2-1.08.69-3.79.69-3.79s5.62 1.02 6.27 1.14c0 0-.37 2.06-.69 3.79c-.31 1.73-1.86 2.23-3.59 1.92c-1.73-.32-3-1.33-2.68-3.06z"/>
  <path d="M75.96 99.98c-.2-1.08-.69-3.79-.69-3.79s-5.62 1.02-6.27 1.14c0 0 .37 2.06.69 3.79c.31 1.73 1.86 2.23 3.59 1.92c1.73-.32 2.99-1.33 2.68-3.06z"/>
  <path d="m67.1 108v3.85h-6.38v-3.85c0-1.76 1.43-2.53 3.19-2.53s3.19 0.77 3.19 2.53z"/>
  <path d="m76.5 108v3.85h-6.38v-3.85c0-1.76 1.43-2.53 3.19-2.53s3.19 0.77 3.19 2.53z"/>
  <path d="m57.7 108v3.85h-6.38v-3.85c0-1.76 1.43-2.53 3.19-2.53s3.19 0.77 3.19 2.53z"/>
  <path d="M84.68 94.49c-.53 2.37-.49 4.06.91 7.09c.33.72.67 1.58.18 2.21c-.55.71-1.58.66-2.55.33c-3.18-1.09-5.71-3.91-6.45-7.19"/>
  <path d="M43.11 94.49c.53 2.37.49 4.06-.91 7.09c-.33.72-.67 1.58-.18 2.21c.55.71 1.58.66 2.55.33c3.18-1.09 5.71-3.91 6.45-7.19"/>
 </g>
 <path d="m35.9 93.9s1.23 0.29 1.94 0.62c3.52 1.67 12 4.79 26 4.79s22.5-3.13 26-4.79c0.71-0.33 1.93-0.35 1.93-0.35-1.24 3.36-3.79 8.59-5.59 11-4.3 6.16-9.13 6.16-13.7 4.94-1.95-0.54-4.82-1.21-8.62-1.21-3.95 0-6.68 0.67-8.62 1.21-4.95 1.21-9.42 0.63-13.7-4.94-1.81-2.46-4.43-7.83-5.62-11.3zm57.4-5c-0.31 0-0.63 0.05-0.95 0.16-5.45 1.83-16.2 4.82-28.5 4.82s-23.1-2.99-28.5-4.82c-0.32-0.11-0.64-0.16-0.95-0.16-1.81 0-3.4 0.85-2.93 2.77 1.02 4.23 3.93 11.9 6.85 15.9 5.09 6.98 7.9 9.19 12 9.29 0.18 0 0.36 0.01 0.53 0.01 5.16 0 6.12-1.93 13-1.93s7.87 1.93 13 1.93c0.17 0 0.35 0 0.53-0.01 4.1-0.1 6.92-2.31 12-9.29 2.91-3.99 6.03-11.4 6.85-16 0.47-1.92-1.12-2.71-2.93-2.71z" fill="#b31b1b"/>
 <path d="m92.4 89c-5.47 1.79-16.2 4.82-28.5 4.82s-23-3.12-28.5-4.82c-1.57-0.49-3.81-0.73-3.89 1.29-0.08 2.01 5.5 3.95 5.84 4.08 3.89 1.56 12.6 4.88 26.6 4.88s22.5-3.01 26.1-4.4c1.92-0.73 6.43-2.55 6.32-4.6-0.08-1.72-2.04-1.85-3.88-1.25z" fill="#cc2d2d"/>
 <path d="M79.08 80.67c-.94-1.95-3.94-3.09-6.46-1c-.8.66-1.95.08-2.72-1.03c-1.73-2.48-2.91-8.88-6.01-8.88s-4.28 6.4-6.01 8.88c-.78 1.11-2.14 1.51-2.72 1.03c-2.52-2.08-5.52-.94-6.46 1c-1.11 2.31-.31 4.33 1.43 5.48c1.47.98 3.25.81 4.49.2c1.21-.6 1.76.12 2.83.92c2.35 1.75 4.7 2.59 6.43 2.59c1.73 0 4.08-.83 6.43-2.59c1.07-.8 1.62-1.52 2.83-.92c1.24.61 3.02.78 4.49-.2c1.77-1.15 2.57-3.17 1.45-5.48z" fill="#ff8a66"/>
 <g fill="#cc2d2d">
  <path d="M56.31 84.45c-.41-.39-.87-.74-1.41-.9c-.54-.16-1.29-.05-1.74.51c-.48.59-.46 1.56.13 2.04c.76.63 1.67.37 2.37.07c1.35 1.38 3.77 2.36 3.77 2.36s-2.56-3.55-3.12-4.08z"/>
  <path d="M71.48 84.45c.41-.39.87-.74 1.41-.9c.54-.16 1.29-.05 1.74.51c.48.59.46 1.56-.13 2.04c-.76.63-1.67.37-2.37.07c-1.35 1.38-3.65 2.3-3.65 2.3s2.44-3.49 3-4.02z"/>
 </g>
 <g fill="#ff8a66">
  <path d="M88.31 78.43c-3.01 2.96-2.23 6.76.55 7.51c2.1.57 4.39.42 6.49-.16c1.89-.52 3.73-1.28 5.11-2.49c2.74-2.41 2.67-7.17-1.82-8.15c-3.48-.76-8.29 1.29-10.33 3.29z"/>
  <path d="M39.47 78.43c3.01 2.96 2.23 6.76-.55 7.51c-2.1.57-4.39.42-6.49-.16c-1.89-.52-3.73-1.28-5.11-2.49c-2.74-2.41-2.67-7.17 1.82-8.15c3.48-.76 8.29 1.29 10.33 3.29z"/>
 </g>
 <path d="m96 42.6c4.93-9.08 6.03-21.2 4.24-29.3-0.38-1.72-2.16-6.47-5.06-6.1-3.08 0.4-1.86 4.45-2.35 8.08-1.63 12.1-7.57 15.2-9.84 17.6-1.44 1.48-2.05 4.88 2.53 8.83 4.58 3.97 9.42 2.88 10.5 0.94z" fill="#f2a600"/>
 <path d="m97.6 30.4c-1.25 2.86-5.79 8.87-10.6 6.43-1.56-0.8-2.36-3.32-1.4-4.78 1.37-2.11 2.42-3.8 3.24-5.32 1.65-2.41 3.18-5.9 3.92-11.4 0.49-3.63-0.73-7.67 2.35-8.08 6.37 0.02 5.2 16.9 2.46 23.1z" fill="#ffca28"/>
 <path d="m32.4 42.7c-4.93-9.08-6.6-21.3-4.81-29.4 0.38-1.72 2.16-6.47 5.06-6.1 3.08 0.4 1.86 4.45 2.35 8.08 1.63 12.1 7.64 15.4 9.91 17.7 1.44 1.48 1.98 4.76-2.6 8.72s-8.86 2.94-9.91 1z" fill="#f2a600"/>
 <path d="m30.2 30.4c1.25 2.86 5.79 8.87 10.6 6.43 1.56-0.8 2.36-3.32 1.4-4.78-1.37-2.11-2.42-3.8-3.24-5.32-1.65-2.41-3.18-5.9-3.92-11.4-0.49-3.63 0.73-7.67-2.35-8.08-6.37 0.02-5.2 16.9-2.46 23.1z" fill="#ffca28"/>
</svg>
