<?xml version="1.0" encoding="UTF-8"?>
<svg width="68cm" height="25cm" version="1.1" viewBox="138 -56 1343 497" xmlns="http://www.w3.org/2000/svg">
 <g fill="none" stroke="#7f7f7f" stroke-width="2">
  <line x1="160" x2="160" y1="160" y2="80"/>
  <line x1="180" x2="180" y1="160" y2="80"/>
  <line x1="200" x2="200" y1="160" y2="80"/>
  <line x1="220" x2="220" y1="160" y2="80"/>
  <line x1="1120" x2="1120" y1="320" y2="240"/>
  <line x1="1140" x2="1140" y1="320" y2="240"/>
  <line x1="1160" x2="1160" y1="320" y2="240"/>
  <line x1="1180" x2="1180" y1="320" y2="240"/>
  <line x1="1200" x2="1200" y1="320" y2="240"/>
  <line x1="1220" x2="1220" y1="320" y2="240"/>
  <line x1="1240" x2="1240" y1="320" y2="240"/>
  <line x1="1260" x2="1260" y1="320" y2="240"/>
  <line x1="1280" x2="1280" y1="320" y2="240"/>
  <line x1="1300" x2="1300" y1="320" y2="240"/>
  <line x1="1320" x2="1320" y1="320" y2="240"/>
  <line x1="1340" x2="1340" y1="320" y2="240"/>
  <line x1="1360" x2="1360" y1="320" y2="240"/>
  <line x1="1380" x2="1380" y1="320" y2="240"/>
  <line x1="1400" x2="1400" y1="320" y2="240"/>
  <line x1="240" x2="240" y1="320" y2="240"/>
  <line x1="260" x2="260" y1="320" y2="240"/>
  <line x1="280" x2="280" y1="320" y2="240"/>
  <line x1="300" x2="300" y1="320" y2="240"/>
  <line x1="320" x2="320" y1="320" y2="240"/>
  <line x1="340" x2="340" y1="320" y2="240"/>
  <line x1="360" x2="360" y1="320" y2="240"/>
  <line x1="380" x2="380" y1="320" y2="240"/>
  <line x1="400" x2="400" y1="320" y2="240"/>
  <line x1="420" x2="420" y1="320" y2="240"/>
  <line x1="440" x2="440" y1="320" y2="240"/>
 </g>
 <g>
  <rect x="220" y="260" width="240" height="42.2" rx="4" ry="4" fill="#009" stroke="#7f7f7f" stroke-width="2"/>
  <text x="340" y="291.15" fill="#ffffff" font-family="sans-serif" font-size="22.6" text-anchor="middle"><tspan x="340" y="291.15">AR</tspan></text>
 </g>
 <g>
  <rect x="660" y="20" width="320" height="41.2" rx="0" ry="0" fill="#ff5" stroke="#000"/>
  <text x="820" y="50.65" fill="#000000" font-family="sans-serif" font-size="22.6" text-anchor="middle"><tspan x="820" y="50.65"/></text>
 </g>
 <g>
  <rect x="660" y="60" width="320" height="41.2" rx="0" ry="0" fill="#ff5" stroke="#000"/>
  <text x="820" y="90.65" fill="#000000" font-family="sans-serif" font-size="22.6" text-anchor="middle"><tspan x="820" y="90.65"/></text>
 </g>
 <g>
  <rect x="660" y="100" width="320" height="41.2" rx="0" ry="0" fill="#ff5" stroke="#000"/>
  <text x="820" y="130.65" fill="#000000" font-family="sans-serif" font-size="22.6" text-anchor="middle"><tspan x="820" y="130.65"/></text>
 </g>
 <g>
  <rect x="660" y="140" width="320" height="41.2" rx="0" ry="0" fill="#ff5" stroke="#000"/>
  <text x="820" y="170.65" fill="#000000" font-family="sans-serif" font-size="22.6" text-anchor="middle"><tspan x="820" y="170.65"/></text>
 </g>
 <g>
  <rect x="660" y="180" width="320" height="41.2" rx="0" ry="0" fill="#ff5" stroke="#000"/>
  <text x="820" y="210.65" fill="#000000" font-family="sans-serif" font-size="22.6" text-anchor="middle"><tspan x="820" y="210.65"/></text>
 </g>
 <g>
  <rect x="660" y="260" width="320" height="41.2" rx="0" ry="0" fill="#ff5" stroke="#000"/>
  <text x="820" y="290.65" fill="#000000" font-family="sans-serif" font-size="22.6" text-anchor="middle"><tspan x="820" y="290.65"/></text>
 </g>
 <g>
  <rect x="660" y="340" width="320" height="41.2" rx="0" ry="0" fill="#ff5" stroke="#000"/>
  <text x="820" y="370.65" fill="#000000" font-family="sans-serif" font-size="22.6" text-anchor="middle"><tspan x="820" y="370.65"/></text>
 </g>
 <g>
  <rect x="1100" y="260" width="320" height="42.2" rx="4" ry="4" fill="#009" stroke="#7f7f7f" stroke-width="2"/>
  <text x="1260" y="291.15" fill="#ffffff" font-family="sans-serif" font-size="22.6" text-anchor="middle"><tspan x="1260" y="291.15">DR</tspan></text>
 </g>
 <g fill="none" stroke="#000" stroke-width="2">
  <line x1="664" x2="976" y1="-20" y2="-20"/>
  <polyline points="672 -25 662 -20 672 -15"/>
  <polyline points="968 -15 978 -20 968 -25"/>
 </g>
 <text x="820" y="-31.25" fill="#000000" font-family="sans-serif" font-size="22.6" text-anchor="middle"><tspan x="820" y="-31.25">h = 16 bit</tspan></text>
 <g fill="none" stroke="#000" stroke-width="2">
  <line x1="1104" x2="1416" y1="220" y2="220"/>
  <polyline points="1112 215 1102 220 1112 225"/>
  <polyline points="1408 225 1418 220 1408 215"/>
 </g>
 <text x="1260" y="208.75" fill="#000000" font-family="sans-serif" font-size="22.6" text-anchor="middle"><tspan x="1260" y="208.75">h = 16 bit</tspan></text>
 <g fill="none" stroke="#000" stroke-width="2">
  <line x1="144" x2="456" y1="60" y2="60"/>
  <polyline points="152 55 142 60 152 65"/>
  <polyline points="448 65 458 60 448 55"/>
 </g>
 <text x="340" y="48.365" fill="#000000" font-family="sans-serif" font-size="22.6" text-anchor="middle"><tspan x="340" y="48.365">h = 16 bit</tspan></text>
 <g>
  <rect x="540" y="20" width="80" height="41.2" rx="0" ry="0" fill="#7f7f7f" stroke="#fff"/>
  <text x="614.5" y="50.65" fill="#000000" font-family="sans-serif" font-size="22.6" text-anchor="end"><tspan x="614.5" y="50.65">0</tspan></text>
 </g>
 <g>
  <rect x="540" y="60" width="80" height="41.2" rx="0" ry="0" fill="#7f7f7f" stroke="#fff"/>
  <text x="614.5" y="90.65" fill="#000000" font-family="sans-serif" font-size="22.6" text-anchor="end"><tspan x="614.5" y="90.65">2</tspan></text>
 </g>
 <g>
  <rect x="540" y="100" width="80" height="41.2" rx="0" ry="0" fill="#7f7f7f" stroke="#fff"/>
  <text x="614.5" y="130.65" fill="#000000" font-family="sans-serif" font-size="22.6" text-anchor="end"><tspan x="614.5" y="130.65">4</tspan></text>
 </g>
 <g>
  <rect x="540" y="140" width="80" height="41.2" rx="0" ry="0" fill="#7f7f7f" stroke="#fff"/>
  <text x="614.5" y="170.65" fill="#000000" font-family="sans-serif" font-size="22.6" text-anchor="end"><tspan x="614.5" y="170.65">6</tspan></text>
 </g>
 <g>
  <rect x="540" y="180" width="80" height="41.2" rx="0" ry="0" fill="#7f7f7f" stroke="#fff"/>
  <text x="614.5" y="210.65" fill="#000000" font-family="sans-serif" font-size="22.6" text-anchor="end"><tspan x="614.5" y="210.65">...</tspan></text>
 </g>
 <g>
  <rect x="540" y="260" width="80" height="41.2" rx="0" ry="0" fill="#7f7f7f" stroke="#fff"/>
  <text x="614.5" y="290.65" fill="#000000" font-family="sans-serif" font-size="22.6" text-anchor="end"><tspan x="614.5" y="290.65"/></text>
 </g>
 <g>
  <rect x="540" y="340" width="80" height="41.2" rx="0" ry="0" fill="#7f7f7f" stroke="#fff"/>
  <text x="614.5" y="370.65" fill="#000000" font-family="sans-serif" font-size="22.6" text-anchor="end"><tspan x="614.5" y="370.65">...</tspan></text>
 </g>
 <g>
  <rect x="660" y="380" width="320" height="41.2" rx="0" ry="0" fill="#ff5" stroke="#000"/>
  <text x="820" y="410.65" fill="#000000" font-family="sans-serif" font-size="22.6" text-anchor="middle"><tspan x="820" y="410.65"/></text>
 </g>
 <g>
  <rect x="540" y="380" width="80" height="41.2" rx="0" ry="0" fill="#7f7f7f" stroke="#fff"/>
  <text x="614.5" y="410.65" fill="#000000" font-family="sans-serif" font-size="22.6" text-anchor="end"><tspan x="614.5" y="410.65">4094</tspan></text>
 </g>
 <text x="1040" y="268.75" fill="#000000" font-family="sans-serif" font-size="22.6" text-anchor="middle"><tspan x="1040" y="268.75">Store</tspan></text>
 <g>
  <rect x="660" y="300" width="320" height="41.2" rx="0" ry="0" fill="#ff5" stroke="#000"/>
  <text x="820" y="330.65" fill="#000000" font-family="sans-serif" font-size="22.6" text-anchor="middle"><tspan x="820" y="330.65"/></text>
 </g>
 <g>
  <rect x="540" y="300" width="80" height="41.2" rx="0" ry="0" fill="#7f7f7f" stroke="#fff"/>
  <text x="614.5" y="330.65" fill="#000000" font-family="sans-serif" font-size="22.6" text-anchor="end"><tspan x="614.5" y="330.65"/></text>
 </g>
 <g>
  <rect x="660" y="220" width="320" height="41.2" rx="0" ry="0" fill="#ff5" stroke="#000"/>
  <text x="820" y="250.65" fill="#000000" font-family="sans-serif" font-size="22.6" text-anchor="middle"><tspan x="820" y="250.65"/></text>
 </g>
 <g>
  <rect x="540" y="220" width="80" height="41.2" rx="0" ry="0" fill="#7f7f7f" stroke="#fff"/>
  <text x="614.5" y="250.65" fill="#000000" font-family="sans-serif" font-size="22.6" text-anchor="end"><tspan x="614.5" y="250.65"/></text>
 </g>
 <g fill="none" stroke="#7f7f7f" stroke-width="2">
  <line x1="680" x2="680" y1="440"/>
  <line x1="700" x2="700" y1="440"/>
  <line x1="720" x2="720" y1="440"/>
  <line x1="740" x2="740" y1="440"/>
  <line x1="760" x2="760" y1="440"/>
  <line x1="780" x2="780" y1="440"/>
  <line x1="800" x2="800" y1="440"/>
  <line x1="820" x2="820" y1="440"/>
  <line x1="840" x2="840" y1="440"/>
  <line x1="860" x2="860" y1="440"/>
  <line x1="880" x2="880" y1="440"/>
  <line x1="900" x2="900" y1="440"/>
  <line x1="920" x2="920" y1="440"/>
  <line x1="940" x2="940" y1="440"/>
  <line x1="960" x2="960" y1="440"/>
  <line x1="240" x2="240" y1="160" y2="80"/>
  <line x1="260" x2="260" y1="160" y2="80"/>
  <line x1="280" x2="280" y1="160" y2="80"/>
  <line x1="300" x2="300" y1="160" y2="80"/>
  <line x1="320" x2="320" y1="160" y2="80"/>
  <line x1="340" x2="340" y1="160" y2="80"/>
  <line x1="360" x2="360" y1="160" y2="80"/>
  <line x1="380" x2="380" y1="160" y2="80"/>
  <line x1="400" x2="400" y1="160" y2="80"/>
  <line x1="420" x2="420" y1="160" y2="80"/>
  <line x1="440" x2="440" y1="160" y2="80"/>
 </g>
 <g>
  <rect x="140" y="100" width="320" height="42.2" rx="4" ry="4" fill="#009" stroke="#7f7f7f" stroke-width="2"/>
  <text x="300" y="131.15" fill="#ffffff" font-family="sans-serif" font-size="22.6" text-anchor="middle"><tspan x="300" y="131.15">IR (Instruction Reg)</tspan></text>
 </g>
 <g>
  <rect x="270" y="300" width="210" height="41.2" rx="0" ry="0" fill="#fff" stroke="#000" stroke-dasharray="4"/>
  <text x="474.5" y="330.65" fill="#000000" font-family="sans-serif" font-size="22.6" text-anchor="end"><tspan x="474.5" y="330.65">0000 0001 0010</tspan></text>
 </g>
 <g stroke="#000" stroke-width="2">
  <path d="m460 111a83.3 83.3 0 0 1 9.13 157" fill="none"/>
  <polygon points="462 270 470 262 469 268 473 272" fill-rule="evenodd"/>
 </g>
 <g>
  <rect x="1360" y="300" width="80" height="41.2" rx="0" ry="0" fill="#fff" stroke="#000" stroke-dasharray="4"/>
  <text x="1434.5" y="330.65" fill="#000000" font-family="sans-serif" font-size="22.6" text-anchor="end"><tspan x="1434.5" y="330.65">1274</tspan></text>
 </g>
 <g fill="none" stroke="#7f7f7f" stroke-width="2">
  <line x1="1120" x2="1120" y1="160" y2="80"/>
  <line x1="1140" x2="1140" y1="160" y2="80"/>
  <line x1="1160" x2="1160" y1="160" y2="80"/>
  <line x1="1180" x2="1180" y1="160" y2="80"/>
  <line x1="1200" x2="1200" y1="160" y2="80"/>
  <line x1="1220" x2="1220" y1="160" y2="80"/>
  <line x1="1240" x2="1240" y1="160" y2="80"/>
  <line x1="1260" x2="1260" y1="160" y2="80"/>
  <line x1="1280" x2="1280" y1="160" y2="80"/>
  <line x1="1300" x2="1300" y1="160" y2="80"/>
  <line x1="1320" x2="1320" y1="160" y2="80"/>
  <line x1="1340" x2="1340" y1="160" y2="80"/>
  <line x1="1360" x2="1360" y1="161" y2="80"/>
  <line x1="1380" x2="1380" y1="160" y2="80"/>
  <line x1="1400" x2="1400" y1="140" y2="80"/>
 </g>
 <g>
  <rect x="1100" y="100" width="320" height="42.2" rx="4" ry="4" fill="#009" stroke="#7f7f7f" stroke-width="2"/>
  <text x="1260" y="131.15" fill="#ffffff" font-family="sans-serif" font-size="22.6" text-anchor="middle"><tspan x="1260" y="131.15">ACC (Accumulator Reg)</tspan></text>
 </g>
 <g>
  <rect x="1360" y="140" width="80" height="41.2" rx="0" ry="0" fill="#fff" stroke="#000" stroke-dasharray="4"/>
  <text x="1434.5" y="170.65" fill="#000000" font-family="sans-serif" font-size="22.6" text-anchor="end"><tspan x="1434.5" y="170.65">1274</tspan></text>
 </g>
 <g stroke="#000" stroke-width="2">
  <path d="m1429 278a83.3 83.3 0 0 0-9.13-157" fill="none"/>
  <polygon points="1422 280 1430 273 1429 278 1433 282" fill-rule="evenodd"/>
 </g>
 <g>
  <rect x="910" y="270" width="80" height="41.2" rx="0" ry="0" fill="#fff" stroke="#000" stroke-dasharray="4"/>
  <text x="984.5" y="300.65" fill="#000000" font-family="sans-serif" font-size="22.6" text-anchor="end"><tspan x="984.5" y="300.65">1274</tspan></text>
 </g>
 <g fill="none" stroke="#000" stroke-width="2">
  <line x1="224" x2="456" y1="380" y2="380"/>
  <polyline points="232 375 222 380 232 385"/>
  <polyline points="448 385 458 380 448 375"/>
 </g>
 <text x="340" y="368.75" fill="#000000" font-family="sans-serif" font-size="22.6" text-anchor="middle"><tspan x="340" y="368.75">k = 12 bit</tspan></text>
 <g>
  <rect x="203" y="140" width="285" height="41.2" rx="0" ry="0" fill="#fff" stroke="#000" stroke-dasharray="4"/>
  <text x="482.7" y="170.65" fill="#000000" font-family="sans-serif" font-size="22.6" text-anchor="end"><tspan x="482.7" y="170.65">0101 0000 0001 0010</tspan></text>
 </g>
 <g stroke="#000" stroke-width="2">
  <line x1="460" x2="650" y1="281" y2="281" fill="none"/>
  <polygon points="658 281 648 286 650 281 648 276" fill-rule="evenodd"/>
 </g>
 <g stroke="#000" stroke-width="2">
  <line x1="1100" x2="990" y1="281" y2="281" fill="none"/>
  <polygon points="982 281 992 276 990 281 992 286" fill-rule="evenodd"/>
 </g>
 <g>
  <path d="m1063-20h173c23.9 0 43.3 13.4 43.3 30 0 16.6-19.4 30-43.3 30h-173c-23.9 0-43.3-13.4-43.3-30 0-16.6 19.4-30 43.3-30z" fill="#d8e5e5" fill-rule="evenodd" stroke="#000" stroke-dasharray="10" stroke-width="2"/>
  <text x="1150" y="7.17778" fill="#000000" font-family="sans-serif" font-size="22.6" text-anchor="middle"><tspan x="1150" y="7.17778">Result of previous</tspan><tspan x="1150" y="35.4">operation</tspan></text>
 </g>
 <line x1="1063" x2="1101" y1="40" y2="101" fill="none" stroke="#000" stroke-dasharray="10" stroke-width="2"/>
</svg>
