<?xml version="1.0" encoding="UTF-8"?>
<svg width="68cm" height="26cm" version="1.1" viewBox="139 -62 1342 504" xmlns="http://www.w3.org/2000/svg">
 <g fill="none" stroke="#7f7f7f" stroke-width="2">
  <line x1="1120" x2="1120" y1="260" y2="180"/>
  <line x1="1140" x2="1140" y1="260" y2="180"/>
  <line x1="1160" x2="1160" y1="260" y2="180"/>
  <line x1="1180" x2="1180" y1="260" y2="180"/>
  <line x1="1200" x2="1200" y1="260" y2="180"/>
  <line x1="1220" x2="1220" y1="260" y2="180"/>
  <line x1="1240" x2="1240" y1="260" y2="180"/>
  <line x1="1260" x2="1260" y1="260" y2="180"/>
  <line x1="1280" x2="1280" y1="260" y2="180"/>
  <line x1="1300" x2="1300" y1="260" y2="180"/>
  <line x1="1320" x2="1320" y1="260" y2="180"/>
  <line x1="1340" x2="1340" y1="260" y2="180"/>
  <line x1="1360" x2="1360" y1="261" y2="180"/>
  <line x1="1380" x2="1380" y1="260" y2="180"/>
  <line x1="1400" x2="1400" y1="240" y2="180"/>
  <line x1="240" x2="240" y1="320" y2="240"/>
  <line x1="260" x2="260" y1="320" y2="240"/>
  <line x1="280" x2="280" y1="320" y2="240"/>
  <line x1="300" x2="300" y1="320" y2="240"/>
  <line x1="320" x2="320" y1="320" y2="240"/>
  <line x1="340" x2="340" y1="320" y2="240"/>
  <line x1="360" x2="360" y1="320" y2="240"/>
  <line x1="380" x2="380" y1="320" y2="240"/>
  <line x1="400" x2="400" y1="320" y2="240"/>
  <line x1="420" x2="420" y1="320" y2="240"/>
  <line x1="440" x2="440" y1="320" y2="240"/>
 </g>
 <g>
  <rect x="220" y="260" width="240" height="42.2" rx="4" ry="4" fill="#009" stroke="#7f7f7f" stroke-width="2"/>
  <text x="340" y="291.15" fill="#ffffff" font-family="sans-serif" font-size="22.6" text-anchor="middle"><tspan x="340" y="291.15">AR</tspan></text>
 </g>
 <text x="220" y="28.75" fill="#ffffff" font-family="sans-serif" font-size="22.6" text-anchor="middle"><tspan x="220" y="28.75">ALU</tspan></text>
 <g>
  <rect x="660" y="20" width="320" height="41.2" rx="0" ry="0" fill="#ff5" stroke="#000"/>
  <text x="820" y="50.65" fill="#000000" font-family="sans-serif" font-size="22.6" text-anchor="middle"><tspan x="820" y="50.65"/></text>
 </g>
 <g>
  <rect x="660" y="60" width="320" height="41.2" rx="0" ry="0" fill="#ff5" stroke="#000"/>
  <text x="820" y="90.65" fill="#000000" font-family="sans-serif" font-size="22.6" text-anchor="middle"><tspan x="820" y="90.65"/></text>
 </g>
 <g>
  <rect x="660" y="100" width="320" height="41.2" rx="0" ry="0" fill="#ff5" stroke="#000"/>
  <text x="820" y="130.65" fill="#000000" font-family="sans-serif" font-size="22.6" text-anchor="middle"><tspan x="820" y="130.65"/></text>
 </g>
 <g>
  <rect x="660" y="140" width="320" height="41.2" rx="0" ry="0" fill="#ff5" stroke="#000"/>
  <text x="820" y="170.65" fill="#000000" font-family="sans-serif" font-size="22.6" text-anchor="middle"><tspan x="820" y="170.65"/></text>
 </g>
 <g>
  <rect x="660" y="180" width="320" height="41.2" rx="0" ry="0" fill="#ff5" stroke="#000"/>
  <text x="820" y="210.65" fill="#000000" font-family="sans-serif" font-size="22.6" text-anchor="middle"><tspan x="820" y="210.65"/></text>
 </g>
 <g>
  <rect x="660" y="260" width="320" height="41.2" rx="0" ry="0" fill="#ff5" stroke="#000"/>
  <text x="820" y="290.65" fill="#000000" font-family="sans-serif" font-size="22.6" text-anchor="middle"><tspan x="820" y="290.65"/></text>
 </g>
 <g>
  <rect x="660" y="340" width="320" height="41.2" rx="0" ry="0" fill="#ff5" stroke="#000"/>
  <text x="820" y="370.65" fill="#000000" font-family="sans-serif" font-size="22.6" text-anchor="middle"><tspan x="820" y="370.65"/></text>
 </g>
 <g>
  <rect x="1100" y="200" width="320" height="42.2" rx="4" ry="4" fill="#009" stroke="#7f7f7f" stroke-width="2"/>
  <text x="1260" y="231.15" fill="#ffffff" font-family="sans-serif" font-size="22.6" text-anchor="middle"><tspan x="1260" y="231.15">DR</tspan></text>
 </g>
 <g fill="none" stroke="#000" stroke-width="2">
  <line x1="664" x2="976" y1="-20" y2="-20"/>
  <polyline points="672 -25 662 -20 672 -15"/>
  <polyline points="968 -15 978 -20 968 -25"/>
 </g>
 <text x="820" y="-31.25" fill="#000000" font-family="sans-serif" font-size="22.6" font-style="italic" text-anchor="middle"><tspan x="820" y="-31.25">h = 16 bit</tspan></text>
 <g fill="none" stroke="#000" stroke-width="2">
  <line x1="1104" x2="1416" y1="160" y2="160"/>
  <polyline points="1112 155 1102 160 1112 165"/>
  <polyline points="1408 165 1418 160 1408 155"/>
 </g>
 <text x="1260" y="148.75" fill="#000000" font-family="sans-serif" font-size="22.6" font-style="italic" text-anchor="middle"><tspan x="1260" y="148.75">h = 16 bit</tspan></text>
 <g fill="none" stroke="#000" stroke-width="2">
  <line x1="224" x2="456" y1="60" y2="60"/>
  <polyline points="232 55 222 60 232 65"/>
  <polyline points="448 65 458 60 448 55"/>
 </g>
 <text x="340" y="48.75" fill="#000000" font-family="sans-serif" font-size="22.6" font-style="italic" text-anchor="middle"><tspan x="340" y="48.75">k = 12 bit</tspan></text>
 <g>
  <rect x="540" y="20" width="80" height="41.2" rx="0" ry="0" fill="#7f7f7f" stroke="#fff"/>
  <text x="614.5" y="47.5" fill="#000000" font-family="monospace" font-size="22.6" text-anchor="end"><tspan x="614.5" y="47.5">0</tspan></text>
 </g>
 <g>
  <rect x="540" y="60" width="80" height="41.2" rx="0" ry="0" fill="#7f7f7f" stroke="#fff"/>
  <text x="614.5" y="87.5" fill="#000000" font-family="monospace" font-size="22.6" text-anchor="end"><tspan x="614.5" y="87.5">2</tspan></text>
 </g>
 <g>
  <rect x="540" y="100" width="80" height="41.2" rx="0" ry="0" fill="#7f7f7f" stroke="#fff"/>
  <text x="614.5" y="127.5" fill="#000000" font-family="monospace" font-size="22.6" text-anchor="end"><tspan x="614.5" y="127.5">4</tspan></text>
 </g>
 <g>
  <rect x="540" y="140" width="80" height="41.2" rx="0" ry="0" fill="#7f7f7f" stroke="#fff"/>
  <text x="614.5" y="167.5" fill="#000000" font-family="monospace" font-size="22.6" text-anchor="end"><tspan x="614.5" y="167.5">6</tspan></text>
 </g>
 <g>
  <rect x="540" y="180" width="80" height="41.2" rx="0" ry="0" fill="#7f7f7f" stroke="#fff"/>
  <text x="614.5" y="207.5" fill="#000000" font-family="monospace" font-size="22.6" text-anchor="end"><tspan x="614.5" y="207.5">...</tspan></text>
 </g>
 <g>
  <rect x="540" y="260" width="80" height="41.2" rx="0" ry="0" fill="#7f7f7f" stroke="#fff"/>
  <text x="614.5" y="287.5" fill="#000000" font-family="monospace" font-size="22.6" text-anchor="end"><tspan x="614.5" y="287.5"/></text>
 </g>
 <g>
  <rect x="540" y="340" width="80" height="41.2" rx="0" ry="0" fill="#7f7f7f" stroke="#fff"/>
  <text x="614.5" y="367.5" fill="#000000" font-family="monospace" font-size="22.6" text-anchor="end"><tspan x="614.5" y="367.5">...</tspan></text>
 </g>
 <g>
  <rect x="660" y="380" width="320" height="41.2" rx="0" ry="0" fill="#ff5" stroke="#000"/>
  <text x="820" y="410.65" fill="#000000" font-family="sans-serif" font-size="22.6" text-anchor="middle"><tspan x="820" y="410.65"/></text>
 </g>
 <g>
  <rect x="540" y="380" width="80" height="41.2" rx="0" ry="0" fill="#7f7f7f" stroke="#fff"/>
  <text x="614.5" y="407.5" fill="#000000" font-family="monospace" font-size="22.6" text-anchor="end"><tspan x="614.5" y="407.5">4094</tspan></text>
 </g>
 <text x="1040" y="228.75" fill="#000000" font-family="sans-serif" font-size="22.6" font-style="italic" text-anchor="middle"><tspan x="1040" y="228.75">Load</tspan></text>
 <g>
  <rect x="660" y="300" width="320" height="41.2" rx="0" ry="0" fill="#ff5" stroke="#000"/>
  <text x="820" y="330.65" fill="#000000" font-family="sans-serif" font-size="22.6" text-anchor="middle"><tspan x="820" y="330.65"/></text>
 </g>
 <g>
  <rect x="540" y="300" width="80" height="41.2" rx="0" ry="0" fill="#7f7f7f" stroke="#fff"/>
  <text x="614.5" y="327.5" fill="#000000" font-family="monospace" font-size="22.6" text-anchor="end"><tspan x="614.5" y="327.5"/></text>
 </g>
 <g>
  <rect x="660" y="220" width="320" height="41.2" rx="0" ry="0" fill="#ff5" stroke="#000"/>
  <text x="820" y="250.65" fill="#000000" font-family="sans-serif" font-size="22.6" text-anchor="middle"><tspan x="820" y="250.65"/></text>
 </g>
 <g>
  <rect x="540" y="220" width="80" height="41.2" rx="0" ry="0" fill="#7f7f7f" stroke="#fff"/>
  <text x="614.5" y="247.5" fill="#000000" font-family="monospace" font-size="22.6" text-anchor="end"><tspan x="614.5" y="247.5"/></text>
 </g>
 <g fill="none" stroke="#7f7f7f" stroke-width="2">
  <line x1="680" x2="680" y1="440"/>
  <line x1="700" x2="700" y1="440"/>
  <line x1="720" x2="720" y1="440"/>
  <line x1="740" x2="740" y1="440"/>
  <line x1="760" x2="760" y1="440"/>
  <line x1="780" x2="780" y1="440"/>
  <line x1="800" x2="800" y1="440"/>
  <line x1="820" x2="820" y1="440"/>
  <line x1="840" x2="840" y1="440"/>
  <line x1="860" x2="860" y1="440"/>
  <line x1="880" x2="880" y1="440"/>
  <line x1="900" x2="900" y1="440"/>
  <line x1="920" x2="920" y1="440"/>
  <line x1="940" x2="940" y1="440"/>
  <line x1="960" x2="960" y1="440"/>
  <line x1="240" x2="240" y1="160" y2="80"/>
  <line x1="260" x2="260" y1="160" y2="80"/>
  <line x1="280" x2="280" y1="160" y2="80"/>
  <line x1="300" x2="300" y1="160" y2="80"/>
  <line x1="320" x2="320" y1="160" y2="80"/>
  <line x1="340" x2="340" y1="160" y2="80"/>
  <line x1="360" x2="360" y1="160" y2="80"/>
  <line x1="380" x2="380" y1="160" y2="80"/>
  <line x1="400" x2="400" y1="160" y2="80"/>
  <line x1="420" x2="420" y1="160" y2="80"/>
  <line x1="440" x2="440" y1="160" y2="80"/>
 </g>
 <g>
  <rect x="220" y="100" width="240" height="42.2" rx="4" ry="4" fill="#009" stroke="#7f7f7f" stroke-width="2"/>
  <text x="340" y="131.15" fill="#ffffff" font-family="sans-serif" font-size="22.6" text-anchor="middle"><tspan x="340" y="131.15">PC (Progr. Counter)</tspan></text>
 </g>
 <g>
  <rect x="400" y="140" width="80" height="41.2" rx="0" ry="0" fill="#fff" stroke="#000" stroke-dasharray="4"/>
  <text x="474.5" y="167.5" fill="#000000" font-family="monospace" font-size="22.6" text-anchor="end"><tspan x="474.5" y="167.5">004</tspan></text>
 </g>
 <g>
  <rect x="400" y="300" width="80" height="41.2" rx="0" ry="0" fill="#fff" stroke="#000" stroke-dasharray="4"/>
  <text x="474.5" y="327.5" fill="#000000" font-family="monospace" font-size="22.6" text-anchor="end"><tspan x="474.5" y="327.5">004</tspan></text>
 </g>
 <g stroke="#000" stroke-width="2">
  <path d="m460 111a83.3 83.3 0 0 1 9.13 157" fill="none"/>
  <polygon points="462 270 470 262 469 268 473 272" fill-rule="evenodd"/>
 </g>
 <g stroke="#000" stroke-width="2">
  <path d="m460 292c66.4 0 134-171 190-171" fill="none"/>
  <polygon points="658 121 648 126 650 121 648 116" fill-rule="evenodd"/>
 </g>
 <g stroke="#000" stroke-width="2">
  <path d="m980 121c39.8 0 80.2 101 110 101" fill="none"/>
  <polygon points="1098 221 1088 226 1090 221 1088 216" fill-rule="evenodd"/>
 </g>
 <g>
  <rect x="1360" y="240" width="80" height="41.2" rx="0" ry="0" fill="#fff" stroke="#000" stroke-dasharray="4"/>
  <text x="1434.5" y="267.5" fill="#000000" font-family="monospace" font-size="22.6" text-anchor="end"><tspan x="1434.5" y="267.5">5012</tspan></text>
 </g>
 <g fill="none" stroke="#7f7f7f" stroke-width="2">
  <line x1="1120" x2="1120" y1="420" y2="340"/>
  <line x1="1140" x2="1140" y1="420" y2="340"/>
  <line x1="1160" x2="1160" y1="420" y2="340"/>
  <line x1="1180" x2="1180" y1="420" y2="340"/>
  <line x1="1200" x2="1200" y1="420" y2="340"/>
  <line x1="1220" x2="1220" y1="420" y2="340"/>
  <line x1="1240" x2="1240" y1="420" y2="340"/>
  <line x1="1260" x2="1260" y1="420" y2="340"/>
  <line x1="1280" x2="1280" y1="420" y2="340"/>
  <line x1="1300" x2="1300" y1="420" y2="340"/>
  <line x1="1320" x2="1320" y1="420" y2="340"/>
  <line x1="1340" x2="1340" y1="420" y2="340"/>
  <line x1="1360" x2="1360" y1="421" y2="340"/>
  <line x1="1380" x2="1380" y1="420" y2="340"/>
  <line x1="1400" x2="1400" y1="400" y2="340"/>
 </g>
 <g>
  <rect x="1100" y="360" width="320" height="42.2" rx="4" ry="4" fill="#009" stroke="#7f7f7f" stroke-width="2"/>
  <text x="1260" y="391.15" fill="#ffffff" font-family="sans-serif" font-size="22.6" text-anchor="middle"><tspan x="1260" y="391.15">IR (Instruction Reg)</tspan></text>
 </g>
 <g>
  <rect x="1360" y="400" width="80" height="41.2" rx="0" ry="0" fill="#fff" stroke="#000" stroke-dasharray="4"/>
  <text x="1434.5" y="427.5" fill="#000000" font-family="monospace" font-size="22.6" text-anchor="end"><tspan x="1434.5" y="427.5">5012</tspan></text>
 </g>
 <g stroke="#000" stroke-width="2">
  <path d="m1420 221a83.3 83.3 0 0 1 9.13 157" fill="none"/>
  <polygon points="1422 380 1430 373 1429 378 1433 382" fill-rule="evenodd"/>
 </g>
 <g>
  <rect x="907" y="107" width="80" height="41.2" rx="0" ry="0" fill="#fff" stroke="#000" stroke-dasharray="4"/>
  <text x="981.772" y="134.37" fill="#000000" font-family="monospace" font-size="22.6" text-anchor="end"><tspan x="981.772" y="134.37">5012</tspan></text>
 </g>
 <g>
  <path d="m350-60h200c27.6 0 50 13.4 50 30s-22.4 30-50 30h-200c-27.6 0-50-13.4-50-30s22.4-30 50-30z" fill="#d8e5e5" fill-rule="evenodd" stroke="#000" stroke-dasharray="10" stroke-width="2"/>
  <text x="450" y="-32.8222" fill="#000000" font-family="sans-serif" font-size="22.6" text-anchor="middle"><tspan x="450" y="-32.8222">Then, increased to 006</tspan><tspan x="450" y="-4.6">pointing to next instr.</tspan></text>
 </g>
 <line x1="459" x2="500" y1="101" fill="none" stroke="#000" stroke-dasharray="10" stroke-width="2"/>
 <line x1="140" x2="140" y1="200" y2="220" fill="none" stroke-opacity="0"/>
</svg>
