<?xml version="1.0" encoding="UTF-8"?>
<svg version="1.1" viewBox="0 0 1e3 1e3" xmlns="http://www.w3.org/2000/svg">
 <defs>
  <pattern id="Wavy" width="30.066020" height="5.1805778" patternUnits="userSpaceOnUse">
   <path d="m7.597 0.061c-2.518-0.248-4.941 0.241-7.607 1.727v1.273c2.783-1.63 5.183-2.009 7.482-1.781 2.298 0.228 4.497 1.081 6.781 1.938 4.567 1.713 9.551 3.458 15.81-0.157l-4e-3 -1.273c-6.44 3.709-10.82 1.982-15.37 0.273-2.278-0.854-4.576-1.75-7.094-2z"/>
  </pattern>
  <filter id="filter6716" x="-.001303" y="-.00124" width="1.003" height="1.002" color-interpolation-filters="sRGB">
   <feGaussianBlur stdDeviation="0.021640441"/>
  </filter>
 </defs>
 <rect x="24.27" y="35.98" width="421.9" height="443.7" rx="45.86" ry="60.76" fill="url(#Wavy)" filter="url(#filter6716)" opacity=".75" stroke="#00f" stroke-dasharray="2.98721, 2.98721" stroke-width=".9957"/>
 <polyline transform="matrix(4.167 0 0 4.167 16.67 991.7)" points="8 -210 96 -210" fill="none" stroke="#000"/>
 <text x="207.40125" y="92.500725" fill="#000000" font-family="'Times New Roman'" font-size="58.33px" stroke-width="4.167">s1</text>
 <polygon transform="matrix(4.167 0 0 4.167 16.67 991.7)" points="8 -190 8 -210 60 -210 60 -190" fill="none" stroke="#000"/>
 <text x="95.172844" y="175.83473" fill="#000000" font-family="'Times New Roman'" font-size="58.33px" stroke-width="4.167"><tspan font-family="'Times New Roman'" font-style="italic">name</tspan></text>
 <polygon transform="matrix(4.167 0 0 4.167 16.67 991.7)" points="60 -190 60 -210 96 -210 96 -190" fill="none" stroke="#000"/>
 <text x="278.50766" y="175.83473" fill="#000000" font-family="'Times New Roman'" font-size="58.33px" stroke-width="4.167"><tspan font-family="'Times New Roman'" font-style="italic">value</tspan></text>
 <polygon transform="matrix(4.167 0 0 4.167 16.67 991.7)" points="8 -170 8 -190 60 -190 60 -170" fill="none" stroke="#000"/>
 <text x="125.93476" y="259.16873" fill="#000000" font-family="'Times New Roman'" font-size="58.33px" stroke-width="4.167">ptr</text>
 <polygon transform="matrix(4.167 0 0 4.167 16.67 991.7)" points="60 -170 60 -190 96 -190 96 -170" fill="none" stroke="#000"/>
 <polygon transform="matrix(4.167 0 0 4.167 16.67 991.7)" points="8 -150 8 -170 60 -170 60 -150" fill="none" stroke="#000"/>
 <text x="122.70181" y="342.50272" fill="#000000" font-family="'Times New Roman'" font-size="58.33px" stroke-width="4.167">len</text>
 <polygon transform="matrix(4.167 0 0 4.167 16.67 991.7)" points="60 -150 60 -170 96 -170 96 -150" fill="none" stroke="#000"/>
 <text x="327.08594" y="342.50272" fill="#000000" font-family="'Times New Roman'" font-size="58.33px" stroke-width="4.167">5</text>
 <polygon transform="matrix(4.167 0 0 4.167 16.67 991.7)" points="8 -130 8 -150 60 -150 60 -130" fill="none" stroke="#000"/>
 <text x="61.17799" y="425.83673" fill="#000000" font-family="'Times New Roman'" font-size="58.33px" stroke-width="4.167">capacity</text>
 <polygon transform="matrix(4.167 0 0 4.167 16.67 991.7)" points="60 -130 60 -150 96 -150 96 -130" fill="none" stroke="#000"/>
 <text x="327.08594" y="425.83673" fill="#000000" font-family="'Times New Roman'" font-size="58.33px" stroke-width="4.167">5</text>
 <polygon transform="matrix(4.167 0 0 4.167 16.67 991.7)" points="148.5 -127 148.5 -147 185.5 -147 185.5 -127" fill="none" stroke="#000"/>
 <text x="647.70599" y="438.33682" fill="#000000" font-family="'Times New Roman'" font-size="58.33px" stroke-width="4.167"><tspan font-family="'Times New Roman'" font-style="italic">index</tspan></text>
 <polygon transform="matrix(4.167 0 0 4.167 16.67 991.7)" points="185.5 -127 185.5 -147 221.5 -147 221.5 -127" fill="none" stroke="#000"/>
 <text x="801.42847" y="438.33682" fill="#000000" font-family="'Times New Roman'" font-size="58.33px" stroke-width="4.167"><tspan font-family="'Times New Roman'" font-style="italic">value</tspan></text>
 <polygon transform="matrix(4.167 0 0 4.167 16.67 991.7)" points="148.5 -107 148.5 -127 185.5 -127 185.5 -107" fill="none" stroke="#000"/>
 <text x="697.92224" y="521.67084" fill="#000000" font-family="'Times New Roman'" font-size="58.33px" stroke-width="4.167">0</text>
 <polygon transform="matrix(4.167 0 0 4.167 16.67 991.7)" points="185.5 -107 185.5 -127 221.5 -127 221.5 -107" fill="none" stroke="#000"/>
 <text x="850.00677" y="521.67084" fill="#000000" font-family="'Times New Roman'" font-size="58.33px" stroke-width="4.167">h</text>
 <polygon transform="matrix(4.167 0 0 4.167 16.67 991.7)" points="148.5 -87 148.5 -107 185.5 -107 185.5 -87" fill="none" stroke="#000"/>
 <text x="697.92224" y="605.00482" fill="#000000" font-family="'Times New Roman'" font-size="58.33px" stroke-width="4.167">1</text>
 <polygon transform="matrix(4.167 0 0 4.167 16.67 991.7)" points="185.5 -87 185.5 -107 221.5 -107 221.5 -87" fill="none" stroke="#000"/>
 <text x="851.64471" y="605.00482" fill="#000000" font-family="'Times New Roman'" font-size="58.33px" stroke-width="4.167">e</text>
 <polygon transform="matrix(4.167 0 0 4.167 16.67 991.7)" points="148.5 -67 148.5 -87 185.5 -87 185.5 -67" fill="none" stroke="#000"/>
 <text x="697.92224" y="688.33881" fill="#000000" font-family="'Times New Roman'" font-size="58.33px" stroke-width="4.167">2</text>
 <polygon transform="matrix(4.167 0 0 4.167 16.67 991.7)" points="185.5 -67 185.5 -87 221.5 -87 221.5 -67" fill="none" stroke="#000"/>
 <text x="856.48688" y="688.33881" fill="#000000" font-family="'Times New Roman'" font-size="58.33px" stroke-width="4.167">l</text>
 <polygon transform="matrix(4.167 0 0 4.167 16.67 991.7)" points="148.5 -47 148.5 -67 185.5 -67 185.5 -47" fill="none" stroke="#000"/>
 <text x="697.92224" y="771.67285" fill="#000000" font-family="'Times New Roman'" font-size="58.33px" stroke-width="4.167">3</text>
 <polygon transform="matrix(4.167 0 0 4.167 16.67 991.7)" points="185.5 -47 185.5 -67 221.5 -67 221.5 -47" fill="none" stroke="#000"/>
 <text x="856.48688" y="771.67285" fill="#000000" font-family="'Times New Roman'" font-size="58.33px" stroke-width="4.167">l</text>
 <polygon transform="matrix(4.167 0 0 4.167 16.67 991.7)" points="148.5 -27 148.5 -47 185.5 -47 185.5 -27" fill="none" stroke="#000"/>
 <text x="697.92224" y="855.00684" fill="#000000" font-family="'Times New Roman'" font-size="58.33px" stroke-width="4.167">4</text>
 <polygon transform="matrix(4.167 0 0 4.167 16.67 991.7)" points="185.5 -27 185.5 -47 221.5 -47 221.5 -27" fill="none" stroke="#000"/>
 <text x="850.00677" y="855.00684" fill="#000000" font-family="'Times New Roman'" font-size="58.33px" stroke-width="4.167">o</text>
 <g class="edge" transform="matrix(4.167 0 0 4.167 16.67 991.7)">
  <title>table0:c-&gt;table1:pointee</title>
  <path d="m78-180s24 53.09 60.44 61.8" fill="none" stroke="#000"/>
  <polygon points="138.2 -114.7 139 -121.7 148.5 -117" stroke="#000"/>
 </g>
 <polyline transform="matrix(4.167 0 0 4.167 16.67 991.7)" points="8 -84 96 -84" fill="none" stroke="#000"/>
 <text x="207.40125" y="617.50494" fill="#000000" font-family="'Times New Roman'" font-size="58.33px" stroke-width="4.167">s2</text>
 <polygon transform="matrix(4.167 0 0 4.167 16.67 991.7)" points="8 -64 8 -84 60 -84 60 -64" fill="none" stroke="#000"/>
 <text x="95.172844" y="700.83893" fill="#000000" font-family="'Times New Roman'" font-size="58.33px" stroke-width="4.167"><tspan font-family="'Times New Roman'" font-style="italic">name</tspan></text>
 <polygon transform="matrix(4.167 0 0 4.167 16.67 991.7)" points="60 -64 60 -84 96 -84 96 -64" fill="none" stroke="#000"/>
 <text x="278.50766" y="700.83893" fill="#000000" font-family="'Times New Roman'" font-size="58.33px" stroke-width="4.167"><tspan font-family="'Times New Roman'" font-style="italic">value</tspan></text>
 <polygon transform="matrix(4.167 0 0 4.167 16.67 991.7)" points="8 -44 8 -64 60 -64 60 -44" fill="none" stroke="#000"/>
 <text x="125.93476" y="784.17297" fill="#000000" font-family="'Times New Roman'" font-size="58.33px" stroke-width="4.167">ptr</text>
 <polygon transform="matrix(4.167 0 0 4.167 16.67 991.7)" points="60 -44 60 -64 96 -64 96 -44" fill="none" stroke="#000"/>
 <polygon transform="matrix(4.167 0 0 4.167 16.67 991.7)" points="8 -24 8 -44 60 -44 60 -24" fill="none" stroke="#000"/>
 <text x="122.70181" y="867.50696" fill="#000000" font-family="'Times New Roman'" font-size="58.33px" stroke-width="4.167">len</text>
 <polygon transform="matrix(4.167 0 0 4.167 16.67 991.7)" points="60 -24 60 -44 96 -44 96 -24" fill="none" stroke="#000"/>
 <text x="327.08594" y="867.50696" fill="#000000" font-family="'Times New Roman'" font-size="58.33px" stroke-width="4.167">5</text>
 <polygon transform="matrix(4.167 0 0 4.167 16.67 991.7)" points="8 -4 8 -24 60 -24 60 -4" fill="none" stroke="#000"/>
 <text x="61.17799" y="950.84094" fill="#000000" font-family="'Times New Roman'" font-size="58.33px" stroke-width="4.167">capacity</text>
 <polygon transform="matrix(4.167 0 0 4.167 16.67 991.7)" points="60 -4 60 -24 96 -24 96 -4" fill="none" stroke="#000"/>
 <text x="327.08594" y="950.84094" fill="#000000" font-family="'Times New Roman'" font-size="58.33px" stroke-width="4.167">5</text>
 <g class="edge" transform="matrix(4.167 0 0 4.167 16.67 991.7)">
  <title>table3:c-&gt;table1:pointee</title>
  <path d="m78-54s24-53.09 60.44-61.8" fill="none" stroke="#000"/>
  <polygon points="139 -112.3 138.2 -119.3 148.5 -117" stroke="#000"/>
 </g>
</svg>
