<?xml version="1.0" encoding="UTF-8"?>
<svg width="11cm" height="11cm" version="1.1" viewBox="0 0 400 400" xmlns="http://www.w3.org/2000/svg">
<g>
<circle cx="200" cy="200" r="100" fill="#000"/>
<circle cx="100" cy="100" r="42" fill="#000"/>
<circle cx="58" cy="58" r="18" fill="#000"/>
<circle cx="40" cy="40" r="8" fill="#000"/>
<circle cx="76" cy="40" r="8" fill="#000"/>
<circle cx="40" cy="76" r="8" fill="#000"/>
<circle cx="142" cy="58" r="18" fill="#000"/>
<circle cx="124" cy="40" r="8" fill="#000"/>
<circle cx="160" cy="40" r="8" fill="#000"/>
<circle cx="160" cy="76" r="8" fill="#000"/>
<circle cx="58" cy="142" r="18" fill="#000"/>
<circle cx="40" cy="124" r="8" fill="#000"/>
<circle cx="40" cy="160" r="8" fill="#000"/>
<circle cx="76" cy="160" r="8" fill="#000"/>
<circle cx="300" cy="100" r="42" fill="#000"/>
<circle cx="258" cy="58" r="18" fill="#000"/>
<circle cx="240" cy="40" r="8" fill="#000"/>
<circle cx="276" cy="40" r="8" fill="#000"/>
<circle cx="240" cy="76" r="8" fill="#000"/>
<circle cx="342" cy="58" r="18" fill="#000"/>
<circle cx="324" cy="40" r="8" fill="#000"/>
<circle cx="360" cy="40" r="8" fill="#000"/>
<circle cx="360" cy="76" r="8" fill="#000"/>
<circle cx="342" cy="142" r="18" fill="#000"/>
<circle cx="360" cy="124" r="8" fill="#000"/>
<circle cx="324" cy="160" r="8" fill="#000"/>
<circle cx="360" cy="160" r="8" fill="#000"/>
<circle cx="100" cy="300" r="42" fill="#000"/>
<circle cx="58" cy="258" r="18" fill="#000"/>
<circle cx="40" cy="240" r="8" fill="#000"/>
<circle cx="76" cy="240" r="8" fill="#000"/>
<circle cx="40" cy="276" r="8" fill="#000"/>
<circle cx="58" cy="342" r="18" fill="#000"/>
<circle cx="40" cy="324" r="8" fill="#000"/>
<circle cx="40" cy="360" r="8" fill="#000"/>
<circle cx="76" cy="360" r="8" fill="#000"/>
<circle cx="142" cy="342" r="18" fill="#000"/>
<circle cx="160" cy="324" r="8" fill="#000"/>
<circle cx="124" cy="360" r="8" fill="#000"/>
<circle cx="160" cy="360" r="8" fill="#000"/>
<circle cx="300" cy="300" r="42" fill="#000"/>
<circle cx="342" cy="258" r="18" fill="#000"/>
<circle cx="324" cy="240" r="8" fill="#000"/>
<circle cx="360" cy="240" r="8" fill="#000"/>
<circle cx="360" cy="276" r="8" fill="#000"/>
<circle cx="258" cy="342" r="18" fill="#000"/>
<circle cx="240" cy="324" r="8" fill="#000"/>
<circle cx="240" cy="360" r="8" fill="#000"/>
<circle cx="276" cy="360" r="8" fill="#000"/>
<circle cx="342" cy="342" r="18" fill="#000"/>
<circle cx="360" cy="324" r="8" fill="#000"/>
<circle cx="324" cy="360" r="8" fill="#000"/>
<circle cx="360" cy="360" r="8" fill="#000"/>
</g>
</svg>
