<?xml version="1.0" encoding="UTF-8"?>
<svg width="11cm" height="11cm" version="1.1" viewBox="0 0 400 400" xmlns="http://www.w3.org/2000/svg">
<g>
<circle cx="200.0" cy="200.0" r="100.0" fill="#000"/>
<circle cx="100.0" cy="100.0" r="42" fill="#000"/>
<circle cx="58.0" cy="58.0" r="18" fill="#000"/>
<circle cx="40.0" cy="40.0" r="8" fill="#000"/>
<circle cx="76.0" cy="40.0" r="8" fill="#000"/>
<circle cx="40.0" cy="76.0" r="8" fill="#000"/>
<circle cx="142.0" cy="58.0" r="18" fill="#000"/>
<circle cx="124.0" cy="40.0" r="8" fill="#000"/>
<circle cx="160.0" cy="40.0" r="8" fill="#000"/>
<circle cx="160.0" cy="76.0" r="8" fill="#000"/>
<circle cx="58.0" cy="142.0" r="18" fill="#000"/>
<circle cx="40.0" cy="124.0" r="8" fill="#000"/>
<circle cx="40.0" cy="160.0" r="8" fill="#000"/>
<circle cx="76.0" cy="160.0" r="8" fill="#000"/>
<circle cx="300.0" cy="100.0" r="42" fill="#000"/>
<circle cx="258.0" cy="58.0" r="18" fill="#000"/>
<circle cx="240.0" cy="40.0" r="8" fill="#000"/>
<circle cx="276.0" cy="40.0" r="8" fill="#000"/>
<circle cx="240.0" cy="76.0" r="8" fill="#000"/>
<circle cx="342.0" cy="58.0" r="18" fill="#000"/>
<circle cx="324.0" cy="40.0" r="8" fill="#000"/>
<circle cx="360.0" cy="40.0" r="8" fill="#000"/>
<circle cx="360.0" cy="76.0" r="8" fill="#000"/>
<circle cx="342.0" cy="142.0" r="18" fill="#000"/>
<circle cx="360.0" cy="124.0" r="8" fill="#000"/>
<circle cx="324.0" cy="160.0" r="8" fill="#000"/>
<circle cx="360.0" cy="160.0" r="8" fill="#000"/>
<circle cx="100.0" cy="300.0" r="42" fill="#000"/>
<circle cx="58.0" cy="258.0" r="18" fill="#000"/>
<circle cx="40.0" cy="240.0" r="8" fill="#000"/>
<circle cx="76.0" cy="240.0" r="8" fill="#000"/>
<circle cx="40.0" cy="276.0" r="8" fill="#000"/>
<circle cx="58.0" cy="342.0" r="18" fill="#000"/>
<circle cx="40.0" cy="324.0" r="8" fill="#000"/>
<circle cx="40.0" cy="360.0" r="8" fill="#000"/>
<circle cx="76.0" cy="360.0" r="8" fill="#000"/>
<circle cx="142.0" cy="342.0" r="18" fill="#000"/>
<circle cx="160.0" cy="324.0" r="8" fill="#000"/>
<circle cx="124.0" cy="360.0" r="8" fill="#000"/>
<circle cx="160.0" cy="360.0" r="8" fill="#000"/>
<circle cx="300.0" cy="300.0" r="42" fill="#000"/>
<circle cx="342.0" cy="258.0" r="18" fill="#000"/>
<circle cx="324.0" cy="240.0" r="8" fill="#000"/>
<circle cx="360.0" cy="240.0" r="8" fill="#000"/>
<circle cx="360.0" cy="276.0" r="8" fill="#000"/>
<circle cx="258.0" cy="342.0" r="18" fill="#000"/>
<circle cx="240.0" cy="324.0" r="8" fill="#000"/>
<circle cx="240.0" cy="360.0" r="8" fill="#000"/>
<circle cx="276.0" cy="360.0" r="8" fill="#000"/>
<circle cx="342.0" cy="342.0" r="18" fill="#000"/>
<circle cx="360.0" cy="324.0" r="8" fill="#000"/>
<circle cx="324.0" cy="360.0" r="8" fill="#000"/>
<circle cx="360.0" cy="360.0" r="8" fill="#000"/>
</g>
</svg>
