<?xml version="1.0" encoding="UTF-8"?>
<svg width="12cm" height="12cm" version="1.1" viewBox="0 0 400 400" xmlns="http://www.w3.org/2000/svg">
<g fill="black" stroke="black">
<rect x="150" y="150" width="100" height="100" />
<line x1="200" y1="200" x2="300" y2="100" />
<rect x="275" y="75" width="50" height="50" />
<line x1="300" y1="100" x2="350" y2="50" />
<rect x="338" y="38" width="25" height="25" />
<line x1="350" y1="50" x2="375" y2="25" />
<rect x="369" y="19" width="12" height="12" />
<line x1="350" y1="50" x2="375" y2="75" />
<rect x="369" y="69" width="12" height="12" />
<line x1="350" y1="50" x2="325" y2="25" />
<rect x="319" y="19" width="12" height="12" />
<line x1="300" y1="100" x2="350" y2="150" />
<rect x="338" y="138" width="25" height="25" />
<line x1="350" y1="150" x2="375" y2="125" />
<rect x="369" y="119" width="12" height="12" />
<line x1="350" y1="150" x2="375" y2="175" />
<rect x="369" y="169" width="12" height="12" />
<line x1="350" y1="150" x2="325" y2="175" />
<rect x="319" y="169" width="12" height="12" />
<line x1="300" y1="100" x2="250" y2="50" />
<rect x="238" y="38" width="25" height="25" />
<line x1="250" y1="50" x2="275" y2="25" />
<rect x="269" y="19" width="12" height="12" />
<line x1="250" y1="50" x2="225" y2="75" />
<rect x="219" y="69" width="12" height="12" />
<line x1="250" y1="50" x2="225" y2="25" />
<rect x="219" y="19" width="12" height="12" />
<line x1="200" y1="200" x2="300" y2="300" />
<rect x="275" y="275" width="50" height="50" />
<line x1="300" y1="300" x2="350" y2="250" />
<rect x="338" y="238" width="25" height="25" />
<line x1="350" y1="250" x2="375" y2="225" />
<rect x="369" y="219" width="12" height="12" />
<line x1="350" y1="250" x2="375" y2="275" />
<rect x="369" y="269" width="12" height="12" />
<line x1="350" y1="250" x2="325" y2="225" />
<rect x="319" y="219" width="12" height="12" />
<line x1="300" y1="300" x2="350" y2="350" />
<rect x="338" y="338" width="25" height="25" />
<line x1="350" y1="350" x2="375" y2="325" />
<rect x="369" y="319" width="12" height="12" />
<line x1="350" y1="350" x2="375" y2="375" />
<rect x="369" y="369" width="12" height="12" />
<line x1="350" y1="350" x2="325" y2="375" />
<rect x="319" y="369" width="12" height="12" />
<line x1="300" y1="300" x2="250" y2="350" />
<rect x="238" y="338" width="25" height="25" />
<line x1="250" y1="350" x2="275" y2="375" />
<rect x="269" y="369" width="12" height="12" />
<line x1="250" y1="350" x2="225" y2="375" />
<rect x="219" y="369" width="12" height="12" />
<line x1="250" y1="350" x2="225" y2="325" />
<rect x="219" y="319" width="12" height="12" />
<line x1="200" y1="200" x2="100" y2="300" />
<rect x="75" y="275" width="50" height="50" />
<line x1="100" y1="300" x2="150" y2="350" />
<rect x="138" y="338" width="25" height="25" />
<line x1="150" y1="350" x2="175" y2="325" />
<rect x="169" y="319" width="12" height="12" />
<line x1="150" y1="350" x2="175" y2="375" />
<rect x="169" y="369" width="12" height="12" />
<line x1="150" y1="350" x2="125" y2="375" />
<rect x="119" y="369" width="12" height="12" />
<line x1="100" y1="300" x2="50" y2="350" />
<rect x="38" y="338" width="25" height="25" />
<line x1="50" y1="350" x2="75" y2="375" />
<rect x="69" y="369" width="12" height="12" />
<line x1="50" y1="350" x2="25" y2="375" />
<rect x="19" y="369" width="12" height="12" />
<line x1="50" y1="350" x2="25" y2="325" />
<rect x="19" y="319" width="12" height="12" />
<line x1="100" y1="300" x2="50" y2="250" />
<rect x="38" y="238" width="25" height="25" />
<line x1="50" y1="250" x2="75" y2="225" />
<rect x="69" y="219" width="12" height="12" />
<line x1="50" y1="250" x2="25" y2="275" />
<rect x="19" y="269" width="12" height="12" />
<line x1="50" y1="250" x2="25" y2="225" />
<rect x="19" y="219" width="12" height="12" />
<line x1="200" y1="200" x2="100" y2="100" />
<rect x="75" y="75" width="50" height="50" />
<line x1="100" y1="100" x2="150" y2="50" />
<rect x="138" y="38" width="25" height="25" />
<line x1="150" y1="50" x2="175" y2="25" />
<rect x="169" y="19" width="12" height="12" />
<line x1="150" y1="50" x2="175" y2="75" />
<rect x="169" y="69" width="12" height="12" />
<line x1="150" y1="50" x2="125" y2="25" />
<rect x="119" y="19" width="12" height="12" />
<line x1="100" y1="100" x2="50" y2="150" />
<rect x="38" y="138" width="25" height="25" />
<line x1="50" y1="150" x2="75" y2="175" />
<rect x="69" y="169" width="12" height="12" />
<line x1="50" y1="150" x2="25" y2="175" />
<rect x="19" y="169" width="12" height="12" />
<line x1="50" y1="150" x2="25" y2="125" />
<rect x="19" y="119" width="12" height="12" />
<line x1="100" y1="100" x2="50" y2="50" />
<rect x="38" y="38" width="25" height="25" />
<line x1="50" y1="50" x2="75" y2="25" />
<rect x="69" y="19" width="12" height="12" />
<line x1="50" y1="50" x2="25" y2="75" />
<rect x="19" y="69" width="12" height="12" />
<line x1="50" y1="50" x2="25" y2="25" />
<rect x="19" y="19" width="12" height="12" />
</g>
</svg>
