<?xml version="1.0" encoding="UTF-8"?>
<!-- Created with Inkscape (http://www.inkscape.org/) -->
<svg width="500" height="500" version="1.1" xmlns="http://www.w3.org/2000/svg">
 <g>
  <rect x="110" y="160" width="138" height="105" fill="#7f7f7f"/>
  <rect x="110" y="160" width="138" height="105" fill="#c2cb51"/>
  <rect x="151" y="29" width="125" height="186" fill="#7f7f7f"/>
  <rect x="151" y="29" width="125" height="186" fill="#eeaddb"/>
  <rect x="154" y="131" width="177" height="181" fill="#7f7f7f"/>
  <rect x="154" y="131" width="177" height="181" fill="#82c8fe"/>
  <rect x="217" y="291" width="176" height="115" fill="#7f7f7f"/>
  <rect x="217" y="291" width="176" height="115" fill="#df6966"/>
  <rect x="101" y="101" width="142" height="165" fill="#7f7f7f"/>
  <rect x="101" y="101" width="142" height="165" fill="#46c04b"/>
  <rect x="198" y="243" width="159" height="105" fill="#7f7f7f"/>
  <rect x="198" y="243" width="159" height="105" fill="#6139cd"/>
  <rect x="8" y="7" width="144" height="124" fill="#7f7f7f"/>
  <rect x="8" y="7" width="144" height="124" fill="#33116d"/>
  <rect x="370" y="257" width="110" height="120" fill="#7f7f7f"/>
  <rect x="370" y="257" width="110" height="120" fill="#e815d3"/>
 </g>
</svg>
