<?xml version="1.0" encoding="UTF-8"?>
<svg width="11cm" height="11cm" version="1.1" viewBox="0 0 400 400" xmlns="http://www.w3.org/2000/svg">
<g>
<circle cx="200" cy="200" r="200" fill="#9fdc26"/>
<circle cx="293" cy="254" r="93" fill="#fc0964"/>
<circle cx="336" cy="278" r="43" fill="#38ce94"/>
<circle cx="356" cy="290" r="20" fill="#eac511"/>
<circle cx="316" cy="290" r="20" fill="#eac511"/>
<circle cx="336" cy="255" r="20" fill="#eac511"/>
<circle cx="250" cy="278" r="43" fill="#38ce94"/>
<circle cx="270" cy="290" r="20" fill="#eac511"/>
<circle cx="230" cy="290" r="20" fill="#eac511"/>
<circle cx="250" cy="255" r="20" fill="#eac511"/>
<circle cx="293" cy="204" r="43" fill="#38ce94"/>
<circle cx="313" cy="215" r="20" fill="#eac511"/>
<circle cx="273" cy="215" r="20" fill="#eac511"/>
<circle cx="293" cy="181" r="20" fill="#eac511"/>
<circle cx="107" cy="254" r="93" fill="#fc0964"/>
<circle cx="150" cy="278" r="43" fill="#38ce94"/>
<circle cx="170" cy="290" r="20" fill="#eac511"/>
<circle cx="130" cy="290" r="20" fill="#eac511"/>
<circle cx="150" cy="255" r="20" fill="#eac511"/>
<circle cx="64" cy="278" r="43" fill="#38ce94"/>
<circle cx="84" cy="290" r="20" fill="#eac511"/>
<circle cx="44" cy="290" r="20" fill="#eac511"/>
<circle cx="64" cy="255" r="20" fill="#eac511"/>
<circle cx="107" cy="204" r="43" fill="#38ce94"/>
<circle cx="127" cy="215" r="20" fill="#eac511"/>
<circle cx="87" cy="215" r="20" fill="#eac511"/>
<circle cx="107" cy="181" r="20" fill="#eac511"/>
<circle cx="200" cy="93" r="93" fill="#fc0964"/>
<circle cx="243" cy="118" r="43" fill="#38ce94"/>
<circle cx="263" cy="129" r="20" fill="#eac511"/>
<circle cx="223" cy="129" r="20" fill="#eac511"/>
<circle cx="243" cy="95" r="20" fill="#eac511"/>
<circle cx="157" cy="118" r="43" fill="#38ce94"/>
<circle cx="177" cy="129" r="20" fill="#eac511"/>
<circle cx="137" cy="129" r="20" fill="#eac511"/>
<circle cx="157" cy="95" r="20" fill="#eac511"/>
<circle cx="200" cy="43" r="43" fill="#38ce94"/>
<circle cx="220" cy="55" r="20" fill="#eac511"/>
<circle cx="180" cy="55" r="20" fill="#eac511"/>
<circle cx="200" cy="20" r="20" fill="#eac511"/>
</g>
</svg>
