<?xml version="1.0" encoding="UTF-8"?>
<svg class="iconify iconify--noto" width="800px" height="800px" aria-hidden="true" role="img" version="1.1" viewBox="0 0 128 128" xmlns="http://www.w3.org/2000/svg">
 <path d="M4 4h120v120H4z" fill="#fff"/>
 <g fill="none" stroke="#b0bec5" stroke-miterlimit="10" stroke-width="2">
  <path d="m124 24h-118"/>
  <path d="m124 44h-119"/>
  <path d="m124 63h-119"/>
  <path d="m124 82h-119"/>
  <path d="m124 102h-119"/>
 </g>
 <path d="m39 122h-17v-67c0-1.4 1.1-2.5 2.5-2.5h12c1.4 0 2.5 1.1 2.5 2.5v67z" fill="#9ccc65"/>
 <path d="m72 122h-17v-47c0-1.4 1.1-2.5 2.5-2.5h12c1.4 0 2.5 1.1 2.5 2.5v47z" fill="#f44336"/>
 <path d="m104 122h-12c-1.4 0-2.5-1.1-2.5-2.5v-94c0-1.4 1.1-2.5 2.5-2.5h12c1.4 0 2.5 1.1 2.5 2.5v94c0 1.4-1.1 2.5-2.5 2.5z" fill="#0091ea"/>
 <path d="M124 120H8V4H4v120h120z" fill="#b0bec5"/>
 <path d="M122 6v116H6V6h116m2-2H4v120h120V4z" fill="#b0bec5"/>
</svg>
