<?xml version="1.0" encoding="UTF-8" standalone="no"?>
<!DOCTYPE svg PUBLIC "-//W3C//DTD SVG 1.1//EN" "http://www.w3.org/Graphics/SVG/1.1/DTD/svg11.dtd">
<svg width="12cm" height="14cm" viewBox="464 119 223 262" xmlns="http://www.w3.org/2000/svg" xmlns:xlink="http://www.w3.org/1999/xlink">
  <g id="Background"/>
  <g id="Background"/>
  <g id="Background"/>
  <g id="Background">
    <text font-size="22.5778" style="fill: #1e90ff; fill-opacity: 1; stroke: none;text-anchor:start;font-family:sans-serif;font-style:italic;font-weight:normal" x="600" y="178.365">
      <tspan x="600" y="178.365">dequeue</tspan>
    </text>
    <text font-size="22.5778" style="fill: #1e90ff; fill-opacity: 1; stroke: none;text-anchor:end;font-family:sans-serif;font-style:italic;font-weight:normal" x="550" y="328.75">
      <tspan x="550" y="328.75">enqueue</tspan>
    </text>
    <g>
      <rect style="fill: #ff0000; fill-opacity: 1; stroke-opacity: 1; stroke-width: 2; stroke: #000000" x="550" y="230" width="40" height="40" rx="6" ry="6"/>
      <text font-size="22.5778" style="fill: #ffffff; fill-opacity: 1; stroke: none;text-anchor:middle;font-family:sans-serif;font-style:normal;font-weight:normal" x="570" y="260.039">
        <tspan x="570" y="260.039"></tspan>
      </text>
    </g>
    <g>
      <rect style="fill: #ff0000; fill-opacity: 1; stroke-opacity: 1; stroke-width: 2; stroke: #000000" x="550" y="270" width="40" height="40" rx="6" ry="6"/>
      <text font-size="22.5778" style="fill: #ffffff; fill-opacity: 1; stroke: none;text-anchor:middle;font-family:sans-serif;font-style:normal;font-weight:normal" x="570" y="300.039">
        <tspan x="570" y="300.039"></tspan>
      </text>
    </g>
    <text font-size="22.5778" style="fill: #000000; fill-opacity: 1; stroke: none;text-anchor:middle;font-family:sans-serif;font-style:normal;font-weight:normal" x="510" y="178.75">
      <tspan x="510" y="178.75">Queue</tspan>
    </text>
    <g>
      <rect style="fill: #ff0000; fill-opacity: 1; stroke-opacity: 1; stroke-width: 2; stroke: #000000" x="620" y="120" width="40" height="40" rx="6" ry="6"/>
      <text font-size="22.5778" style="fill: #ffffff; fill-opacity: 1; stroke: none;text-anchor:middle;font-family:sans-serif;font-style:normal;font-weight:normal" x="640" y="150.039">
        <tspan x="640" y="150.039"></tspan>
      </text>
    </g>
    <g>
      <path style="fill: none; stroke-opacity: 1; stroke-width: 6; stroke: #1e90ff" d="M 570 189.009 C 570,159.009 589.009,140 604.801,140"/>
      <polygon style="fill: #1e90ff; fill-opacity: 1; stroke-opacity: 1; stroke-width: 6; stroke: #1e90ff" fill-rule="evenodd" points="612.301,140 602.301,145 604.801,140 602.301,135 "/>
    </g>
    <g>
      <rect style="fill: #ff0000; fill-opacity: 1; stroke-opacity: 1; stroke-width: 2; stroke: #000000" x="480" y="340" width="40" height="40" rx="6" ry="6"/>
      <text font-size="22.5778" style="fill: #ffffff; fill-opacity: 1; stroke: none;text-anchor:middle;font-family:sans-serif;font-style:normal;font-weight:normal" x="500" y="370.039">
        <tspan x="500" y="370.039"></tspan>
      </text>
    </g>
    <g>
      <path style="fill: none; stroke-opacity: 1; stroke-width: 6; stroke: #1e90ff" d="M 520.991 360 C 550.991,360 570,340.991 570,325.199"/>
      <polygon style="fill: #1e90ff; fill-opacity: 1; stroke-opacity: 1; stroke-width: 6; stroke: #1e90ff" fill-rule="evenodd" points="570,317.699 575,327.699 570,325.199 565,327.699 "/>
    </g>
    <g>
      <rect style="fill: #ff0000; fill-opacity: 1; stroke-opacity: 1; stroke-width: 2; stroke: #000000" x="550" y="190" width="40" height="40" rx="6" ry="6"/>
      <text font-size="22.5778" style="fill: #ffffff; fill-opacity: 1; stroke: none;text-anchor:middle;font-family:sans-serif;font-style:normal;font-weight:normal" x="570" y="220.039">
        <tspan x="570" y="220.039"></tspan>
      </text>
    </g>
    <text font-size="22.5778" style="fill: #000000; fill-opacity: 1; stroke: none;text-anchor:start;font-family:sans-serif;font-style:italic;font-weight:normal" x="630" y="218.75">
      <tspan x="630" y="218.75">head</tspan>
    </text>
    <g>
      <line style="fill: none; stroke-opacity: 1; stroke-width: 2; stroke: #000000" x1="620" y1="210" x2="600.738" y2="210"/>
      <polygon style="fill: #000000; fill-opacity: 1; stroke-opacity: 1; stroke-width: 2; stroke: #000000" fill-rule="evenodd" points="593.238,210 603.238,205 600.738,210 603.238,215 "/>
    </g>
  </g>
</svg>
