<?xml version="1.0" encoding="UTF-8"?>
<!-- License: Apache. Made by googlefonts: https://github.com/googlefonts/noto-emoji -->
<svg class="iconify iconify--noto" width="800px" height="800px" aria-hidden="true" role="img" version="1.1" viewBox="0 0 128 128" xmlns="http://www.w3.org/2000/svg">
 <path d="m104 63h-0.01c-0.12-2.4-2.7-4.7-7.2-6.1-9.6-2.9-20-4.6-32-4.7-12 0.1-23 1.8-32 4.7-4.5 1.4-7.1 3.6-7.2 6.1h-0.02v50c-0.11 2.8 3 5.8 10 7.8 7.5 2.1 18 3.5 29 3.5s22-1.4 29-3.5c7.6-2.2 11-5.3 10-8.2h0.04v-50z" fill="#e2a610"/>
 <path d="m24 63h79" fill="#e2a610"/>
 <path d="m95 56c-9.1-2.6-19-4.2-31-4.3-12 0.09-22 1.6-31 4.3-9.1 2.6-10 9.3 2.9 13 7.1 1.9 17 3.2 28 3.2s21-1.2 28-3.2c13-3.5 12-10 2.9-13z" fill="#fdd835"/>
 <path d="m92 62s-0.37 1.7-5.2 1.7-5.9-1.7-5.9-1.7v-22c0-10-7.6-18-17-18s-17 8.2-17 18v22s-2.1 1.7-6 1.7-5.1-1.7-5.1-1.7v-22c0-16 13-29 28-29s28 13 28 29v22z" fill="#84b0c1" stroke="#84b0c1" stroke-miterlimit="10" stroke-width="2"/>
 <path d="m51 22c-5.1 3.1-5.9 5.1-7.4 6.1-1.1 0.7-2.5 0.14-1.6-2.3 0.79-2.1 2.7-6 7.4-9 8.2-5.2 15-5 15-0.99-0.32 3.5-7.9 3-13 6.2z" fill="#b9e4ea"/>
 <g transform="matrix(.63 0 0 .61 161 -12)">
  <rect x="-144" y="168" width="8" height="24" rx="0" ry="0" fill="#86a7b2" stroke="#7f7f7f" stroke-width="2"/>
  <text x="-140" y="189.05" fill="#000000" font-family="sans-serif" font-size="20px" text-anchor="middle"><tspan x="-140" y="189.05"/></text>
  <rect x="-160" y="150" width="20" height="20" rx="0" ry="0" fill="#add8e6" stroke="#7f7f7f" stroke-width="2"/>
  <text x="-150" y="168.061" fill="#000000" font-family="sans-serif" font-size="18px" text-anchor="middle"><tspan x="-150" y="168.061">2</tspan></text>
  <rect x="-164" y="170" width="20" height="20" rx="0" ry="0" fill="#add8e6" stroke="#7f7f7f" stroke-width="2"/>
  <text x="-154" y="188.061" fill="#000000" font-family="sans-serif" font-size="18px" text-anchor="middle"><tspan x="-154" y="188.061">6</tspan></text>
  <rect x="-168" y="168" width="4" height="24" rx="0" ry="0" fill="#99bfcc" stroke="#7f7f7f" stroke-width="2"/>
  <text x="-166" y="189.05" fill="#000000" font-family="sans-serif" font-size="20px" text-anchor="middle"><tspan x="-166" y="189.05"/></text>
  <rect x="-160" y="190" width="20" height="20" rx="0" ry="0" fill="#add8e6" stroke="#7f7f7f" stroke-width="2"/>
  <text x="-150" y="208.061" fill="#000000" font-family="sans-serif" font-size="18px" text-anchor="middle"><tspan x="-150" y="208.061">5</tspan></text>
 </g>
 <g fill-rule="evenodd" stroke-width="2">
  <polygon transform="matrix(.63 0 0 .61 161 -12)" points="-156 142 -152 146 -148 142" fill="#ffa500" stroke="#cc8400"/>
  <polygon transform="matrix(.63 0 0 .61 161 -12)" points="-156 218 -152 214 -148 218" fill="#ffa500" stroke="#cc8400"/>
  <g transform="matrix(.63 0 0 .61 161 -12)" fill="#86a7b2" stroke="#7f7f7f">
   <polygon points="-136 150 -136 170 -140 170 -140 150" stroke-linejoin="round"/>
   <polygon points="-136 190 -136 210 -140 210 -140 190"/>
   <polygon points="-160 150 -164 150 -168 150 -168 170 -164 170 -160 170"/>
   <polygon points="-160 190 -164 190 -168 190 -168 210 -164 210 -160 210"/>
  </g>
 </g>
</svg>
