<?xml version="1.0" encoding="UTF-8"?>
<svg width="19.7cm" height="19.4cm" version="1.1" viewBox="343 178 391 371" xmlns="http://www.w3.org/2000/svg">
 <g transform="translate(6.05 -9.74)">
  <g fill="none">
   <g stroke="#bfbfbf" stroke-width="2">
    <line x1="400" x2="400" y1="400" y2="560"/>
    <line x1="480" x2="480" y1="400" y2="560"/>
    <line x1="440" x2="440" y1="400" y2="560"/>
    <g stroke-dasharray="4">
     <line x1="380" x2="380" y1="400" y2="560"/>
     <line x1="420" x2="420" y1="400" y2="560"/>
     <line x1="460" x2="460" y1="400" y2="560"/>
     <line x1="500" x2="500" y1="400" y2="560"/>
    </g>
    <line x1="360" x2="520" y1="520" y2="520"/>
    <line x1="360" x2="520" y1="440" y2="440"/>
    <line x1="360" x2="520" y1="480" y2="480"/>
    <g stroke-dasharray="4">
     <line x1="360" x2="520" y1="420" y2="420"/>
     <line x1="360" x2="520" y1="460" y2="460"/>
     <line x1="360" x2="520" y1="500" y2="500"/>
     <line x1="360" x2="520" y1="540" y2="540"/>
     <line x1="560" x2="720" y1="320" y2="320"/>
     <line x1="560" x2="720" y1="240" y2="240"/>
     <line x1="600" x2="600" y1="200" y2="360"/>
     <line x1="680" x2="680" y1="200" y2="360"/>
     <line x1="440" x2="440" y1="200" y2="360"/>
     <line x1="360" x2="520" y1="280" y2="280"/>
    </g>
   </g>
   <g stroke="#f00" stroke-width="4">
    <line x1="400" x2="480" y1="280" y2="280"/>
    <line x1="400" x2="400" y1="240" y2="320"/>
    <line x1="480" x2="480" y1="240" y2="320"/>
   </g>
   <line x1="640" x2="640" y1="200" y2="360" stroke="#bfbfbf" stroke-width="2"/>
   <line x1="560" x2="720" y1="280" y2="280" stroke="#bfbfbf" stroke-width="2"/>
   <g stroke="#f00" stroke-width="4">
    <line x1="600" x2="680" y1="280" y2="280"/>
    <line x1="600" x2="600" y1="240" y2="320"/>
    <line x1="680" x2="680" y1="240" y2="320"/>
    <line x1="580" x2="580" y1="220" y2="260"/>
    <line x1="620" x2="620" y1="220" y2="260"/>
    <line x1="660" x2="660" y1="220" y2="260"/>
    <line x1="700" x2="700" y1="220" y2="260"/>
    <line x1="580" x2="580" y1="300" y2="340"/>
    <line x1="620" x2="620" y1="300" y2="340"/>
    <line x1="660" x2="660" y1="300" y2="340"/>
    <line x1="700" x2="700" y1="300" y2="340"/>
    <line x1="620" x2="580" y1="240" y2="240"/>
    <line x1="700" x2="660" y1="240" y2="240"/>
    <line x1="620" x2="580" y1="320" y2="320"/>
    <line x1="700" x2="660" y1="320" y2="320"/>
    <line x1="400" x2="480" y1="480" y2="480"/>
    <line x1="400" x2="400" y1="440" y2="520"/>
    <line x1="480" x2="480" y1="440" y2="520"/>
    <line x1="380" x2="380" y1="420" y2="460"/>
    <line x1="420" x2="420" y1="420" y2="460"/>
    <line x1="460" x2="460" y1="420" y2="460"/>
    <line x1="500" x2="500" y1="420" y2="460"/>
    <line x1="380" x2="380" y1="500" y2="540"/>
    <line x1="420" x2="420" y1="500" y2="540"/>
    <line x1="460" x2="460" y1="500" y2="540"/>
    <line x1="500" x2="500" y1="500" y2="540"/>
    <line x1="420" x2="380" y1="440" y2="440"/>
    <line x1="500" x2="460" y1="440" y2="440"/>
    <line x1="420" x2="380" y1="520" y2="520"/>
    <line x1="500" x2="460" y1="520" y2="520"/>
    <line x1="370" x2="370" y1="410" y2="430"/>
    <line x1="390" x2="390" y1="410" y2="430"/>
    <line x1="390" x2="370" y1="420" y2="420"/>
    <line x1="410" x2="410" y1="410" y2="430"/>
    <line x1="430" x2="430" y1="410" y2="430"/>
    <line x1="430" x2="410" y1="420" y2="420"/>
    <line x1="450" x2="450" y1="410" y2="430"/>
    <line x1="470" x2="470" y1="410" y2="430"/>
    <line x1="470" x2="450" y1="420" y2="420"/>
    <line x1="490" x2="490" y1="410" y2="430"/>
    <line x1="510" x2="510" y1="410" y2="430"/>
    <line x1="510" x2="490" y1="420" y2="420"/>
    <line x1="370" x2="370" y1="450" y2="470"/>
    <line x1="390" x2="390" y1="450" y2="470"/>
    <line x1="390" x2="370" y1="460" y2="460"/>
    <line x1="410" x2="410" y1="450" y2="470"/>
    <line x1="430" x2="430" y1="450" y2="470"/>
    <line x1="430" x2="410" y1="460" y2="460"/>
    <line x1="450" x2="450" y1="450" y2="470"/>
    <line x1="470" x2="470" y1="450" y2="470"/>
    <line x1="470" x2="450" y1="460" y2="460"/>
    <line x1="490" x2="490" y1="450" y2="470"/>
    <line x1="510" x2="510" y1="450" y2="470"/>
    <line x1="510" x2="490" y1="460" y2="460"/>
    <line x1="370" x2="370" y1="490" y2="510"/>
    <line x1="390" x2="390" y1="490" y2="510"/>
    <line x1="390" x2="370" y1="500" y2="500"/>
    <line x1="410" x2="410" y1="490" y2="510"/>
    <line x1="430" x2="430" y1="490" y2="510"/>
    <line x1="430" x2="410" y1="500" y2="500"/>
    <line x1="450" x2="450" y1="490" y2="510"/>
    <line x1="470" x2="470" y1="490" y2="510"/>
    <line x1="470" x2="450" y1="500" y2="500"/>
    <line x1="490" x2="490" y1="490" y2="510"/>
    <line x1="510" x2="510" y1="490" y2="510"/>
    <line x1="510" x2="490" y1="500" y2="500"/>
    <line x1="370" x2="370" y1="530" y2="550"/>
    <line x1="390" x2="390" y1="530" y2="550"/>
    <line x1="390" x2="370" y1="540" y2="540"/>
    <line x1="410" x2="410" y1="530" y2="550"/>
    <line x1="430" x2="430" y1="530" y2="550"/>
    <line x1="430" x2="410" y1="540" y2="540"/>
    <line x1="450" x2="450" y1="530" y2="550"/>
    <line x1="470" x2="470" y1="530" y2="550"/>
    <line x1="470" x2="450" y1="540" y2="540"/>
    <line x1="490" x2="490" y1="530" y2="550"/>
    <line x1="510" x2="510" y1="530" y2="550"/>
    <line x1="510" x2="490" y1="540" y2="540"/>
    <line x1="600" x2="680" y1="480" y2="480"/>
    <line x1="600" x2="600" y1="440" y2="520"/>
    <line x1="680" x2="680" y1="440" y2="520"/>
    <line x1="580" x2="580" y1="420" y2="460"/>
    <line x1="620" x2="620" y1="420" y2="460"/>
    <line x1="660" x2="660" y1="420" y2="460"/>
    <line x1="700" x2="700" y1="420" y2="460"/>
    <line x1="580" x2="580" y1="500" y2="540"/>
    <line x1="620" x2="620" y1="500" y2="540"/>
    <line x1="660" x2="660" y1="500" y2="540"/>
    <line x1="700" x2="700" y1="500" y2="540"/>
    <line x1="620" x2="580" y1="440" y2="440"/>
    <line x1="700" x2="660" y1="440" y2="440"/>
    <line x1="620" x2="580" y1="520" y2="520"/>
    <line x1="700" x2="660" y1="520" y2="520"/>
    <line x1="570" x2="570" y1="410" y2="430"/>
    <line x1="590" x2="590" y1="410" y2="430"/>
    <line x1="590" x2="570" y1="420" y2="420"/>
    <line x1="610" x2="610" y1="410" y2="430"/>
    <line x1="630" x2="630" y1="410" y2="430"/>
    <line x1="630" x2="610" y1="420" y2="420"/>
    <line x1="650" x2="650" y1="410" y2="430"/>
    <line x1="670" x2="670" y1="410" y2="430"/>
    <line x1="670" x2="650" y1="420" y2="420"/>
    <line x1="690" x2="690" y1="410" y2="430"/>
    <line x1="710" x2="710" y1="410" y2="430"/>
    <line x1="710" x2="690" y1="420" y2="420"/>
    <line x1="570" x2="570" y1="450" y2="470"/>
    <line x1="590" x2="590" y1="450" y2="470"/>
    <line x1="590" x2="570" y1="460" y2="460"/>
    <line x1="610" x2="610" y1="450" y2="470"/>
    <line x1="630" x2="630" y1="450" y2="470"/>
    <line x1="630" x2="610" y1="460" y2="460"/>
    <line x1="650" x2="650" y1="450" y2="470"/>
    <line x1="670" x2="670" y1="450" y2="470"/>
    <line x1="670" x2="650" y1="460" y2="460"/>
    <line x1="690" x2="690" y1="450" y2="470"/>
    <line x1="710" x2="710" y1="450" y2="470"/>
    <line x1="710" x2="690" y1="460" y2="460"/>
    <line x1="570" x2="570" y1="490" y2="510"/>
    <line x1="590" x2="590" y1="490" y2="510"/>
    <line x1="590" x2="570" y1="500" y2="500"/>
    <line x1="610" x2="610" y1="490" y2="510"/>
    <line x1="630" x2="630" y1="490" y2="510"/>
    <line x1="630" x2="610" y1="500" y2="500"/>
    <line x1="650" x2="650" y1="490" y2="510"/>
    <line x1="670" x2="670" y1="490" y2="510"/>
    <line x1="670" x2="650" y1="500" y2="500"/>
    <line x1="690" x2="690" y1="490" y2="510"/>
    <line x1="710" x2="710" y1="490" y2="510"/>
    <line x1="710" x2="690" y1="500" y2="500"/>
    <line x1="570" x2="570" y1="530" y2="550"/>
    <line x1="590" x2="590" y1="530" y2="550"/>
    <line x1="590" x2="570" y1="540" y2="540"/>
    <line x1="610" x2="610" y1="530" y2="550"/>
    <line x1="630" x2="630" y1="530" y2="550"/>
    <line x1="630" x2="610" y1="540" y2="540"/>
    <line x1="650" x2="650" y1="530" y2="550"/>
    <line x1="670" x2="670" y1="530" y2="550"/>
    <line x1="670" x2="650" y1="540" y2="540"/>
    <line x1="690" x2="690" y1="530" y2="550"/>
    <line x1="710" x2="710" y1="530" y2="550"/>
    <line x1="710" x2="690" y1="540" y2="540"/>
   </g>
   <g stroke="#000" stroke-width="2">
    <polyline points="360 400 360 560 520 560 520 400 360 400"/>
    <polyline points="360 200 360 360 520 360 520 200 360 200"/>
    <polyline points="560 200 560 360 720 360 720 200 560 200"/>
    <polyline points="560 400 560 560 720 560 720 400 560 400"/>
   </g>
  </g>
  <g fill="#197ad8" font-family="sans-serif" font-size="16.9px" text-anchor="middle">
   <text x="400" y="196.575"><tspan x="400" y="196.575">¼</tspan></text>
   <text x="480" y="196.575"><tspan x="480" y="196.575">¾</tspan></text>
   <text x="350" y="246.575"><tspan x="350" y="246.575">¼</tspan></text>
   <text x="350" y="326.57501"><tspan x="350" y="326.57501">¾</tspan></text>
   <text x="350" y="286.57501"><tspan x="350" y="286.57501">½</tspan></text>
  </g>
 </g>
</svg>
