<?xml version="1.0" encoding="UTF-8"?>
<svg width="11cm" height="11cm" version="1.1" viewBox="659 199 202 203" xmlns="http://www.w3.org/2000/svg">
 <g>
  <rect x="700" y="200" width="40" height="40" rx="10" ry="10" fill="#1e90ff" stroke="#fff" stroke-width="2"/>
  <text x="720" y="232.561" fill="#ffffff" font-family="sans-serif" font-size="28.22" font-weight="700" text-anchor="middle"><tspan x="720" y="232.561"/></text>
  <rect x="740" y="200" width="40" height="40" rx="10" ry="10" fill="#1e90ff" stroke="#fff" stroke-width="2"/>
  <text x="760" y="232.561" fill="#ffffff" font-family="sans-serif" font-size="28.22" font-weight="700" text-anchor="middle"><tspan x="760" y="232.561"/></text>
  <rect x="780" y="200" width="40" height="40" rx="10" ry="10" fill="#1e90ff" stroke="#fff" stroke-width="2"/>
  <text x="800" y="232.561" fill="#ffffff" font-family="sans-serif" font-size="28.22" font-weight="700" text-anchor="middle"><tspan x="800" y="232.561"/></text>
  <rect x="820" y="200" width="40" height="40" rx="10" ry="10" fill="#1e90ff" stroke="#fff" stroke-width="2"/>
  <text x="840" y="232.561" fill="#ffffff" font-family="sans-serif" font-size="28.22" font-weight="700" text-anchor="middle"><tspan x="840" y="232.561"/></text>
  <rect x="740" y="240" width="40" height="40" rx="10" ry="10" fill="#f00" stroke="#fff" stroke-width="2"/>
  <text x="760" y="263.808" fill="#ffffff" font-family="sans-serif" font-size="8.467" font-weight="700" text-anchor="middle"><tspan x="760" y="263.808">(x,y-1)</tspan></text>
  <rect x="820" y="240" width="40" height="40" rx="10" ry="10" fill="#1e90ff" stroke="#fff" stroke-width="2"/>
  <text x="840" y="272.561" fill="#ffffff" font-family="sans-serif" font-size="28.22" font-weight="700" text-anchor="middle"><tspan x="840" y="272.561"/></text>
  <rect x="700" y="280" width="40" height="40" rx="10" ry="10" fill="#f00" stroke="#fff" stroke-width="2"/>
  <text x="720" y="303.808" fill="#ffffff" font-family="sans-serif" font-size="8.467" font-weight="700" text-anchor="middle"><tspan x="720" y="303.808">(x-1,y)</tspan></text>
  <rect x="740" y="320" width="40" height="40" rx="10" ry="10" fill="#f00" stroke="#fff" stroke-width="2"/>
  <text x="760" y="343.808" fill="#ffffff" font-family="sans-serif" font-size="8.467" font-weight="700" text-anchor="middle"><tspan x="760" y="343.808">(x,y+1)</tspan></text>
  <rect x="780" y="280" width="40" height="40" rx="10" ry="10" fill="#f00" stroke="#fff" stroke-width="2"/>
  <text x="800" y="303.808" fill="#ffffff" font-family="sans-serif" font-size="8.467" font-weight="700" text-anchor="middle"><tspan x="800" y="303.808">(x+1,y)</tspan></text>
  <rect x="820" y="280" width="40" height="40" rx="10" ry="10" fill="#1e90ff" stroke="#fff" stroke-width="2"/>
  <text x="840" y="312.561" fill="#ffffff" font-family="sans-serif" font-size="28.22" font-weight="700" text-anchor="middle"><tspan x="840" y="312.561"/></text>
  <rect x="820" y="320" width="40" height="40" rx="10" ry="10" fill="#1e90ff" stroke="#fff" stroke-width="2"/>
  <text x="840" y="352.561" fill="#ffffff" font-family="sans-serif" font-size="28.22" font-weight="700" text-anchor="middle"><tspan x="840" y="352.561"/></text>
  <rect x="740" y="280" width="40" height="40" rx="10" ry="10" fill="#009" stroke="#fff" stroke-width="2"/>
  <text x="760" y="307.567" fill="#ffffff" font-family="sans-serif" font-size="16.93" font-weight="700" text-anchor="middle"><tspan x="760" y="307.567">(x,y)</tspan></text>
  <rect x="660" y="200" width="40" height="40" rx="10" ry="10" fill="#1e90ff" stroke="#fff" stroke-width="2"/>
  <text x="680" y="232.561" fill="#ffffff" font-family="sans-serif" font-size="28.22" font-weight="700" text-anchor="middle"><tspan x="680" y="232.561"/></text>
  <rect x="660" y="240" width="40" height="40" rx="10" ry="10" fill="#1e90ff" stroke="#fff" stroke-width="2"/>
  <text x="680" y="272.561" fill="#ffffff" font-family="sans-serif" font-size="28.22" font-weight="700" text-anchor="middle"><tspan x="680" y="272.561"/></text>
  <rect x="660" y="280" width="40" height="40" rx="10" ry="10" fill="#1e90ff" stroke="#fff" stroke-width="2"/>
  <text x="680" y="312.561" fill="#ffffff" font-family="sans-serif" font-size="28.22" font-weight="700" text-anchor="middle"><tspan x="680" y="312.561"/></text>
  <rect x="660" y="320" width="40" height="40" rx="10" ry="10" fill="#1e90ff" stroke="#fff" stroke-width="2"/>
  <text x="680" y="352.561" fill="#ffffff" font-family="sans-serif" font-size="28.22" font-weight="700" text-anchor="middle"><tspan x="680" y="352.561"/></text>
  <rect x="740" y="360" width="40" height="40" rx="10" ry="10" fill="#1e90ff" stroke="#fff" stroke-width="2"/>
  <text x="760" y="392.561" fill="#ffffff" font-family="sans-serif" font-size="28.22" font-weight="700" text-anchor="middle"><tspan x="760" y="392.561"/></text>
  <rect x="700" y="360" width="40" height="40" rx="10" ry="10" fill="#1e90ff" stroke="#fff" stroke-width="2"/>
  <text x="720" y="392.561" fill="#ffffff" font-family="sans-serif" font-size="28.22" font-weight="700" text-anchor="middle"><tspan x="720" y="392.561"/></text>
  <rect x="780" y="360" width="40" height="40" rx="10" ry="10" fill="#1e90ff" stroke="#fff" stroke-width="2"/>
  <text x="800" y="392.561" fill="#ffffff" font-family="sans-serif" font-size="28.22" font-weight="700" text-anchor="middle"><tspan x="800" y="392.561"/></text>
  <rect x="820" y="360" width="40" height="40" rx="10" ry="10" fill="#1e90ff" stroke="#fff" stroke-width="2"/>
  <text x="840" y="392.561" fill="#ffffff" font-family="sans-serif" font-size="28.22" font-weight="700" text-anchor="middle"><tspan x="840" y="392.561"/></text>
  <rect x="660" y="360" width="40" height="40" rx="10" ry="10" fill="#1e90ff" stroke="#fff" stroke-width="2"/>
  <text x="680" y="392.561" fill="#ffffff" font-family="sans-serif" font-size="28.22" font-weight="700" text-anchor="middle"><tspan x="680" y="392.561"/></text>
  <rect x="780" y="240" width="40" height="40" rx="10" ry="10" fill="#f00" stroke="#fff" stroke-width="2"/>
  <text x="800" y="263.808" fill="#ffffff" font-family="sans-serif" font-size="8.467" font-weight="700" text-anchor="middle"><tspan x="800" y="263.808">(x+1,y-1)</tspan></text>
  <rect x="780" y="320" width="40" height="40" rx="10" ry="10" fill="#f00" stroke="#fff" stroke-width="2"/>
  <text x="800" y="343.808" fill="#ffffff" font-family="sans-serif" font-size="8.467" font-weight="700" text-anchor="middle"><tspan x="800" y="343.808">(x+1,x+1)</tspan></text>
  <rect x="700" y="320" width="40" height="40" rx="10" ry="10" fill="#f00" stroke="#fff" stroke-width="2"/>
  <text x="720" y="343.808" fill="#ffffff" font-family="sans-serif" font-size="8.467" font-weight="700" text-anchor="middle"><tspan x="720" y="343.808">(x-1,y+1)</tspan></text>
  <rect x="700" y="240" width="40" height="40" rx="10" ry="10" fill="#f00" stroke="#fff" stroke-width="2"/>
  <text x="720" y="263.808" fill="#ffffff" font-family="sans-serif" font-size="8.467" font-weight="700" text-anchor="middle"><tspan x="720" y="263.808">(x-1,y-1)</tspan></text>
 </g>
</svg>
