<?xml version="1.0" encoding="UTF-8"?>
<svg width="10cm" height="21cm" version="1.1" viewBox="299 79 183 402" xmlns="http://www.w3.org/2000/svg">
 <g>
  <rect x="300" y="80" width="180" height="40" rx="0" ry="0" fill="#1e90ff" stroke="#000" stroke-width="2"/>
  <text x="390" y="106.575" fill="#ffffff" font-family="sans-serif" font-size="16.9" text-anchor="middle"><tspan x="390" y="106.575">Color palette</tspan></text>
  <rect x="340" y="120" width="140" height="360" rx="0" ry="0" fill="#fff" stroke="#000" stroke-width="2"/>
  <text x="350" y="147.825" fill="#000000" font-family="sans-serif" font-size="16.9"><tspan x="350" y="147.825">Black</tspan><tspan x="350" y="168.992">Dark red</tspan><tspan x="350" y="190.158">Dark green</tspan><tspan x="350" y="211.325">Dark yellow</tspan><tspan x="350" y="232.492">Dark blue</tspan><tspan x="350" y="253.658">Dark magenta</tspan><tspan x="350" y="274.825">Dark cyan</tspan><tspan x="350" y="295.992">Dark gray</tspan><tspan x="350" y="317.158">Light gray</tspan><tspan x="350" y="338.325">Light red</tspan><tspan x="350" y="359.492">Light green</tspan><tspan x="350" y="380.658">Light yellow</tspan><tspan x="350" y="401.825">Light blue</tspan><tspan x="350" y="422.992">Light magenta</tspan><tspan x="350" y="444.158">Light cyan</tspan><tspan x="350" y="465.325">White</tspan></text>
  <rect x="300" y="120" width="40" height="360" rx="0" ry="0" fill="#fff" stroke="#000" stroke-width="2"/>
  <text x="320" y="147.825" fill="#000000" font-family="sans-serif" font-size="16.9" text-anchor="middle"><tspan x="320" y="147.825">0</tspan><tspan x="320" y="168.992">1</tspan><tspan x="320" y="190.158">2</tspan><tspan x="320" y="211.325">3</tspan><tspan x="320" y="232.492">4</tspan><tspan x="320" y="253.658">5</tspan><tspan x="320" y="274.825">6</tspan><tspan x="320" y="295.992">7</tspan><tspan x="320" y="317.158">8</tspan><tspan x="320" y="338.325">9</tspan><tspan x="320" y="359.492">A</tspan><tspan x="320" y="380.658">B</tspan><tspan x="320" y="401.825">C</tspan><tspan x="320" y="422.992">D</tspan><tspan x="320" y="444.158">E</tspan><tspan x="320" y="465.325">F</tspan></text>
 </g>
</svg>
