<?xml version="1.0" encoding="UTF-8"?>
<svg class="iconify iconify--noto" width="800px" height="800px" aria-hidden="true" role="img" version="1.1" viewBox="0 0 128 128" xmlns="http://www.w3.org/2000/svg">
 <g fill="#ad7146">
  <path d="m19 17h93v2.5h-93z"/>
  <path d="m19 37h93v2.5h-93z"/>
  <path d="m19 57h93v2.5h-93z"/>
  <path d="m19 76h93v2.5h-93z"/>
  <path d="m19 96h93v2.5h-93z"/>
 </g>
 <path d="m19 115h-4.1c-1.1 0-2-0.92-2-2v-107c0-1.1 0.92-2 2-2h4.1c1.1 0 2 0.92 2 2v107c0.01 1.1-0.91 2-2 2z" fill="#d99b61"/>
 <path d="m113 115h-4.1c-1.1 0-2-0.92-2-2v-107c0-1.1 0.92-2 2-2h4.1c1.1 0 2 0.92 2 2v107c0.01 1.1-0.91 2-2 2z" fill="#d99b61"/>
 <path d="m13 108v4.7c0 1.1 0.92 2 2 2h4.1c1.1 0 2-0.92 2-2v-4.7h-8.1z" fill="#bf7c4e"/>
 <path d="m107 108v4.7c0 1.1 0.92 2 2 2h4.1c1.1 0 2-0.92 2-2v-4.7h-8.1z" fill="#bf7c4e"/>
 <path d="m119 124h-110c-1.1 0-2-0.92-2-2v-8.1c0-1.1 0.92-2 2-2h110c1.1 0 2 0.92 2 2v8.1a2 2 0 0 1-2 2z" fill="#d99b61"/>
 <g fill="#ad7146">
  <path d="m19 17h93v2.5h-93z"/>
  <path d="m19 37h93v2.5h-93z"/>
  <path d="m19 57h93v2.5h-93z"/>
  <path d="m19 76h93v2.5h-93z"/>
  <path d="m19 96h93v2.5h-93z"/>
 </g>
 <path d="m19 115h-4.1c-1.1 0-2-0.92-2-2v-107c0-1.1 0.92-2 2-2h4.1c1.1 0 2 0.92 2 2v107c0.01 1.1-0.91 2-2 2z" fill="#d99b61"/>
 <path d="m113 115h-4.1c-1.1 0-2-0.92-2-2v-107c0-1.1 0.92-2 2-2h4.1c1.1 0 2 0.92 2 2v107c0.01 1.1-0.91 2-2 2z" fill="#d99b61"/>
 <path d="m13 108v4.7c0 1.1 0.92 2 2 2h4.1c1.1 0 2-0.92 2-2v-4.7h-8.1z" fill="#bf7c4e"/>
 <path d="m107 108v4.7c0 1.1 0.92 2 2 2h4.1c1.1 0 2-0.92 2-2v-4.7h-8.1z" fill="#bf7c4e"/>
 <path d="m119 124h-110c-1.1 0-2-0.92-2-2v-8.1c0-1.1 0.92-2 2-2h110c1.1 0 2 0.92 2 2v8.1a2 2 0 0 1-2 2z" fill="#d99b61"/>
 <g fill="#1976d2">
  <path d="m25 90c-2 0-3.6 1.6-3.6 3.6v6.1c0 2 1.6 3.6 3.6 3.6s3.6-1.6 3.6-3.6v-6.1c0-2-1.6-3.6-3.6-3.6z"/>
  <path d="m33 90c-2 0-3.6 1.6-3.6 3.6v6.1c0 2 1.6 3.6 3.6 3.6s3.6-1.6 3.6-3.6v-6.1c0-2-1.6-3.6-3.6-3.6z"/>
  <path d="m41 90c-2 0-3.6 1.6-3.6 3.6v6.1c0 2 1.6 3.6 3.6 3.6s3.6-1.6 3.6-3.6v-6.1c0-2-1.6-3.6-3.6-3.6z"/>
  <path d="m51 90c-2 0-3.6 1.6-3.6 3.6v6.1c0 2 1.6 3.6 3.6 3.6s3.6-1.6 3.6-3.6v-6.1c0-2-1.6-3.6-3.6-3.6z"/>
  <path d="m59 90c-2 0-3.6 1.6-3.6 3.6v6.1c0 2 1.6 3.6 3.6 3.6s3.6-1.6 3.6-3.6v-6.1c0-2-1.6-3.6-3.6-3.6z"/>
  <path d="m68 90c-2 0-3.6 1.6-3.6 3.6v6.1c0 2 1.6 3.6 3.6 3.6s3.6-1.6 3.6-3.6v-6.1c0-2-1.6-3.6-3.6-3.6z"/>
  <path d="m79 90c-2 0-3.6 1.6-3.6 3.6v6.1c0 2 1.6 3.6 3.6 3.6s3.6-1.6 3.6-3.6v-6.1c0-2-1.6-3.6-3.6-3.6z"/>
  <path d="m87 90c-2 0-3.6 1.6-3.6 3.6v6.1c0 2 1.6 3.6 3.6 3.6s3.6-1.6 3.6-3.6v-6.1c0-2-1.6-3.6-3.6-3.6z"/>
  <path d="m95 90c-2 0-3.6 1.6-3.6 3.6v6.1c0 2 1.6 3.6 3.6 3.6s3.6-1.6 3.6-3.6v-6.1c0-2-1.6-3.6-3.6-3.6z"/>
  <path d="m102 90c-2 0-3.6 1.6-3.6 3.6v6.1c0 2 1.6 3.6 3.6 3.6s3.6-1.6 3.6-3.6v-6.1c-0.01-2-1.6-3.6-3.6-3.6z"/>
 </g>
 <g fill="#689f38">
  <path d="m25 71c-2 0-3.6 1.6-3.6 3.6v6.1c0 2 1.6 3.6 3.6 3.6s3.6-1.6 3.6-3.6v-6.1c0-2-1.6-3.6-3.6-3.6z"/>
  <path d="m33 71c-2 0-3.6 1.6-3.6 3.6v6.1c0 2 1.6 3.6 3.6 3.6s3.6-1.6 3.6-3.6v-6.1c0-2-1.6-3.6-3.6-3.6z"/>
  <path d="m41 71c-2 0-3.6 1.6-3.6 3.6v6.1c0 2 1.6 3.6 3.6 3.6s3.6-1.6 3.6-3.6v-6.1c0-2-1.6-3.6-3.6-3.6z"/>
  <path d="m49 71c-2 0-3.6 1.6-3.6 3.6v6.1c0 2 1.6 3.6 3.6 3.6s3.6-1.6 3.6-3.6v-6.1c0-2-1.6-3.6-3.6-3.6z"/>
  <path d="m62 71c-2 0-3.6 1.6-3.6 3.6v6.1c0 2 1.6 3.6 3.6 3.6s3.6-1.6 3.6-3.6v-6.1c0-2-1.6-3.6-3.6-3.6z"/>
  <path d="m70 71c-2 0-3.6 1.6-3.6 3.6v6.1c0 2 1.6 3.6 3.6 3.6s3.6-1.6 3.6-3.6v-6.1c0-2-1.6-3.6-3.6-3.6z"/>
  <path d="m78 71c-2 0-3.6 1.6-3.6 3.6v6.1c0 2 1.6 3.6 3.6 3.6s3.6-1.6 3.6-3.6v-6.1c0-2-1.6-3.6-3.6-3.6z"/>
  <path d="m86 71c-2 0-3.6 1.6-3.6 3.6v6.1c0 2 1.6 3.6 3.6 3.6s3.6-1.6 3.6-3.6v-6.1c0-2-1.6-3.6-3.6-3.6z"/>
  <path d="m94 71c-2 0-3.6 1.6-3.6 3.6v6.1c0 2 1.6 3.6 3.6 3.6s3.6-1.6 3.6-3.6v-6.1c0-2-1.6-3.6-3.6-3.6z"/>
  <path d="m102 71c-2 0-3.6 1.6-3.6 3.6v6.1c0 2 1.6 3.6 3.6 3.6s3.6-1.6 3.6-3.6v-6.1c-0.01-2-1.6-3.6-3.6-3.6z"/>
 </g>
 <g fill="#ffca28">
  <path d="m25 52c-2 0-3.6 1.6-3.6 3.6v6.1c0 2 1.6 3.6 3.6 3.6s3.6-1.6 3.6-3.6v-6.1c0-2-1.6-3.6-3.6-3.6z"/>
  <path d="m33 52c-2 0-3.6 1.6-3.6 3.6v6.1c0 2 1.6 3.6 3.6 3.6s3.6-1.6 3.6-3.6v-6.1c0-2-1.6-3.6-3.6-3.6z"/>
  <path d="m41 52c-2 0-3.6 1.6-3.6 3.6v6.1c0 2 1.6 3.6 3.6 3.6s3.6-1.6 3.6-3.6v-6.1c0-2-1.6-3.6-3.6-3.6z"/>
  <path d="m49 52c-2 0-3.6 1.6-3.6 3.6v6.1c0 2 1.6 3.6 3.6 3.6s3.6-1.6 3.6-3.6v-6.1c0-2-1.6-3.6-3.6-3.6z"/>
  <path d="m57 52c-2 0-3.6 1.6-3.6 3.6v6.1c0 2 1.6 3.6 3.6 3.6s3.6-1.6 3.6-3.6v-6.1c0-2-1.6-3.6-3.6-3.6z"/>
  <path d="m66 52c-2 0-3.6 1.6-3.6 3.6v6.1c0 2 1.6 3.6 3.6 3.6s3.6-1.6 3.6-3.6v-6.1c0-2-1.6-3.6-3.6-3.6z"/>
  <path d="m74 52c-2 0-3.6 1.6-3.6 3.6v6.1c0 2 1.6 3.6 3.6 3.6s3.6-1.6 3.6-3.6v-6.1c0-2-1.6-3.6-3.6-3.6z"/>
  <path d="m82 52c-2 0-3.6 1.6-3.6 3.6v6.1c0 2 1.6 3.6 3.6 3.6s3.6-1.6 3.6-3.6v-6.1c0-2-1.6-3.6-3.6-3.6z"/>
  <path d="m90 52c-2 0-3.6 1.6-3.6 3.6v6.1c0 2 1.6 3.6 3.6 3.6s3.6-1.6 3.6-3.6v-6.1c0-2-1.6-3.6-3.6-3.6z"/>
  <path d="m102 52c-2 0-3.6 1.6-3.6 3.6v6.1c0 2 1.6 3.6 3.6 3.6s3.6-1.6 3.6-3.6v-6.1c-0.01-2-1.6-3.6-3.6-3.6z"/>
 </g>
 <g fill="#f57c00">
  <path d="m25 32c-2 0-3.6 1.6-3.6 3.6v6.1c0 2 1.6 3.6 3.6 3.6s3.6-1.6 3.6-3.6v-6.1c0-2-1.6-3.6-3.6-3.6z"/>
  <path d="m33 32c-2 0-3.6 1.6-3.6 3.6v6.1c0 2 1.6 3.6 3.6 3.6s3.6-1.6 3.6-3.6v-6.1c0-2-1.6-3.6-3.6-3.6z"/>
  <path d="m43 32c-2 0-3.6 1.6-3.6 3.6v6.1c0 2 1.6 3.6 3.6 3.6s3.6-1.6 3.6-3.6v-6.1c0-2-1.6-3.6-3.6-3.6z"/>
  <path d="m56 32c-2 0-3.6 1.6-3.6 3.6v6.1c0 2 1.6 3.6 3.6 3.6s3.6-1.6 3.6-3.6v-6.1c0-2-1.6-3.6-3.6-3.6z"/>
  <path d="m64 32c-2 0-3.6 1.6-3.6 3.6v6.1c0 2 1.6 3.6 3.6 3.6s3.6-1.6 3.6-3.6v-6.1c0-2-1.6-3.6-3.6-3.6z"/>
  <path d="m72 32c-2 0-3.6 1.6-3.6 3.6v6.1c0 2 1.6 3.6 3.6 3.6s3.6-1.6 3.6-3.6v-6.1c0-2-1.6-3.6-3.6-3.6z"/>
  <path d="m80 32c-2 0-3.6 1.6-3.6 3.6v6.1c0 2 1.6 3.6 3.6 3.6s3.6-1.6 3.6-3.6v-6.1c0-2-1.6-3.6-3.6-3.6z"/>
  <path d="m88 32c-2 0-3.6 1.6-3.6 3.6v6.1c0 2 1.6 3.6 3.6 3.6s3.6-1.6 3.6-3.6v-6.1c0-2-1.6-3.6-3.6-3.6z"/>
  <path d="m95 32c-2 0-3.6 1.6-3.6 3.6v6.1c0 2 1.6 3.6 3.6 3.6s3.6-1.6 3.6-3.6v-6.1c0-2-1.6-3.6-3.6-3.6z"/>
  <path d="m103 32c-2 0-3.6 1.6-3.6 3.6v6.1c0 2 1.6 3.6 3.6 3.6s3.6-1.6 3.6-3.6v-6.1c0-2-1.6-3.6-3.6-3.6z"/>
 </g>
 <g fill="#d82521">
  <path d="m25 12c-2 0-3.6 1.6-3.6 3.6v6.1c0 2 1.6 3.6 3.6 3.6s3.6-1.6 3.6-3.6v-6.1c0-2-1.6-3.6-3.6-3.6z"/>
  <path d="m32 12c-2 0-3.6 1.6-3.6 3.6v6.1c0 2 1.6 3.6 3.6 3.6s3.6-1.6 3.6-3.6v-6.1c-0.01-2-1.6-3.6-3.6-3.6z"/>
  <path d="m40 12c-2 0-3.6 1.6-3.6 3.6v6.1c0 2 1.6 3.6 3.6 3.6s3.6-1.6 3.6-3.6v-6.1c0-2-1.6-3.6-3.6-3.6z"/>
  <path d="m48 12c-2 0-3.6 1.6-3.6 3.6v6.1c0 2 1.6 3.6 3.6 3.6s3.6-1.6 3.6-3.6v-6.1c0-2-1.6-3.6-3.6-3.6z"/>
  <path d="m55 12c-2 0-3.6 1.6-3.6 3.6v6.1c0 2 1.6 3.6 3.6 3.6s3.6-1.6 3.6-3.6v-6.1c0-2-1.6-3.6-3.6-3.6z"/>
  <path d="m66 12c-2 0-3.6 1.6-3.6 3.6v6.1c0 2 1.6 3.6 3.6 3.6s3.6-1.6 3.6-3.6v-6.1c0-2-1.6-3.6-3.6-3.6z"/>
  <path d="m74 12c-2 0-3.6 1.6-3.6 3.6v6.1c0 2 1.6 3.6 3.6 3.6s3.6-1.6 3.6-3.6v-6.1c0-2-1.6-3.6-3.6-3.6z"/>
  <path d="m87 12c-2 0-3.6 1.6-3.6 3.6v6.1c0 2 1.6 3.6 3.6 3.6s3.6-1.6 3.6-3.6v-6.1c0-2-1.6-3.6-3.6-3.6z"/>
  <path d="m95 12c-2 0-3.6 1.6-3.6 3.6v6.1c0 2 1.6 3.6 3.6 3.6s3.6-1.6 3.6-3.6v-6.1c0-2-1.6-3.6-3.6-3.6z"/>
  <path d="m103 12c-2 0-3.6 1.6-3.6 3.6v6.1c0 2 1.6 3.6 3.6 3.6s3.6-1.6 3.6-3.6v-6.1c0-2-1.6-3.6-3.6-3.6z"/>
 </g>
 <g fill="#2196f3">
  <path d="m22 94c-0.04 0.7-0.37 3.8 2.3 3.8s2.2-3 2.2-3.8c-0.02-0.58-0.06-1.2-0.37-1.7s-1.4-1.2-2.6-0.81c-1.3 0.43-1.5 1.9-1.5 2.4z"/>
  <path d="m31 94c-0.04 0.7 0.15 3.3 2.4 3.1 2.7-0.3 2.5-2.7 2.5-3.5-0.02-0.58-0.14-1.4-0.66-2-0.4-0.46-1.5-1.1-2.8-0.45-1.2 0.6-1.3 2.3-1.4 2.8z"/>
  <path d="m39 94c-0.04 0.7 0.15 2.8 2.4 3.1 2.5 0.28 2.6-2.3 2.5-3.5-0.07-0.57-0.65-2.7-2.7-2.5-2.1 0.25-2.1 2.4-2.1 2.9z"/>
  <path d="m65 94c-0.04 0.7-0.37 3.8 2.3 3.8s2.2-3 2.2-3.8c-0.02-0.58-0.06-1.2-0.37-1.7s-1.4-1.2-2.6-0.81c-1.3 0.43-1.5 1.9-1.5 2.4z"/>
  <path d="m85 94c-0.04 0.7-0.37 3.8 2.3 3.8s2.2-3 2.2-3.8c-0.02-0.58-0.06-1.2-0.37-1.7s-1.4-1.2-2.6-0.81c-1.3 0.43-1.5 1.9-1.5 2.4z"/>
  <path d="m57 94c-0.04 0.7 0.15 2.8 2.4 3.1 2.5 0.28 2.5-2.7 2.5-3.5-0.02-0.58-0.14-1.4-0.66-2-0.4-0.46-1.5-1.1-2.8-0.45-1.2 0.6-1.3 2.3-1.4 2.8z"/>
  <path d="m77 94c-0.04 0.7 0.15 2.8 2.4 3.1 2.5 0.28 2.5-2.7 2.5-3.5-0.02-0.58-0.14-1.4-0.66-2-0.4-0.46-1.5-1.1-2.8-0.45-1.2 0.6-1.3 2.3-1.4 2.8z"/>
 </g>
 <path d="m47 75c-0.04 0.64 0.15 2.6 2.4 2.8 2.5 0.26 2.5-2.5 2.5-3.2-0.02-0.53-0.14-1.2-0.66-1.8-0.4-0.43-1.5-0.99-2.8-0.41-1.2 0.55-1.3 2.2-1.4 2.6z" fill="#8bc34a"/>
 <path d="m49 94c-0.04 0.7 0.15 2.8 2.4 3.1 2.5 0.28 2.6-2.3 2.5-3.5-0.07-0.57-0.65-2.7-2.7-2.5s-2.1 2.4-2.1 2.9z" fill="#2196f3"/>
 <path d="m39 74c-0.2 0.98-0.08 3.6 2.3 3.6 2.7 0.03 2.3-2.8 2.2-3.5-0.3-2.1-1.7-2.7-3-2.3-1.3 0.39-1.4 1.8-1.5 2.3z" fill="#8bc34a"/>
 <path d="m39 55c-0.2 0.98-0.08 3.6 2.3 3.6 2.7 0.03 2.3-2.8 2.2-3.5-0.3-2.1-1.7-2.7-3-2.3-1.3 0.39-1.4 1.8-1.5 2.3z" fill="#ffeb3b"/>
 <path d="m47 55c-0.2 0.98-0.08 3.6 2.3 3.6 2.7 0.03 2.2-2.8 2.2-3.5-0.16-1.7-0.93-2.4-2.2-2.4-2-0.03-2.2 1.9-2.2 2.4z" fill="#ffeb3b"/>
 <path d="m31 75c-0.04 0.7 0.13 3.1 2.4 3.1 2.5 0.02 2.5-2.7 2.5-3.5-0.02-0.57-0.14-1.4-0.66-2-0.4-0.46-1.5-1.1-2.8-0.44-1.2 0.59-1.3 2.3-1.4 2.8z" fill="#8bc34a"/>
 <path d="m22 75c-0.04 0.7 0.15 2.8 2.4 3.1 2.5 0.28 2.6-2.3 2.5-3.5-0.07-0.57-0.65-2.7-2.7-2.5-2.1 0.25-2.1 2.4-2.1 2.9z" fill="#8bc34a"/>
 <g fill="#f44336">
  <path d="m45 16c-0.04 0.64 0.15 2.6 2.4 2.8 2.5 0.26 2.5-2.5 2.5-3.2-0.02-0.53-0.14-1.2-0.66-1.8-0.4-0.43-1.5-0.99-2.8-0.41-1.2 0.55-1.3 2.1-1.4 2.6z"/>
  <path d="m63 16c-0.04 0.64 0.15 2.6 2.4 2.8 2.5 0.26 2.5-2.5 2.5-3.2-0.02-0.53-0.14-1.2-0.66-1.8-0.4-0.43-1.5-0.99-2.8-0.41-1.2 0.55-1.3 2.1-1.4 2.6z"/>
  <path d="m76 16c0.04 0.64-0.15 2.6-2.4 2.8-2.6 0.26-2.6-2.5-2.6-3.2 0.02-0.53 0.15-1.2 0.69-1.8 0.41-0.43 1.6-0.99 2.9-0.41 1.2 0.55 1.4 2.1 1.4 2.6z"/>
  <path d="m38 16c-0.2 0.98-0.08 3.6 2.3 3.6 2.7 0.03 2.3-2.8 2.2-3.5-0.3-2.1-1.7-2.7-3-2.3-1.3 0.4-1.4 1.8-1.5 2.3z"/>
  <path d="m30 16c-0.04 0.7 0.13 3.1 2.4 3.1 2.5 0.02 2.5-2.7 2.5-3.5-0.02-0.57-0.14-1.4-0.66-2-0.4-0.46-1.5-1.1-2.8-0.44-1.2 0.59-1.3 2.3-1.4 2.8z"/>
  <path d="m93 15c-0.32 0.95-0.52 3.5 1.9 3.8 2.6 0.31 2.6-2.6 2.6-3.3-0.04-2.2-1.4-2.9-2.7-2.6-1.3 0.26-1.6 1.7-1.8 2.1z"/>
  <path d="m84 16c-0.04 0.7 0.13 3.1 2.4 3.1 2.5 0.02 2.5-2.7 2.5-3.5-0.02-0.57-0.14-1.4-0.66-2-0.4-0.46-1.5-1.1-2.8-0.44-1.2 0.59-1.3 2.3-1.4 2.8z"/>
  <path d="m101 16c0.01 0.7 0.36 3 2.6 2.9 2.5-0.14 2.3-2.9 2.2-3.6-0.06-0.57-0.24-1.3-0.81-1.9-0.43-0.44-1.6-0.98-2.8-0.27-1.1 0.65-1.1 2.4-1.1 2.9z"/>
  <path d="m53 16c0.05 0.7 0.54 3 2.8 2.8 2.5-0.26 2.1-3 2-3.7-0.09-0.57-0.32-1.3-0.92-1.9-0.45-0.41-1.7-0.89-2.8-0.12-1.1 0.71-1 2.4-0.98 2.9z"/>
  <path d="m22 16c-0.04 0.7 0.15 2.8 2.4 3.1 2.5 0.28 2.6-2.3 2.5-3.5-0.07-0.57-0.65-2.7-2.7-2.5-2.1 0.25-2.1 2.4-2.1 2.9z"/>
 </g>
 <g fill="#ffeb3b">
  <path d="m30 55c-0.04 0.7 0.13 3.1 2.4 3.1 2.5 0.02 2.5-2.7 2.5-3.5-0.02-0.57-0.14-1.4-0.66-2-0.4-0.46-1.5-1.1-2.8-0.44-1.2 0.59-1.3 2.3-1.4 2.8z"/>
  <path d="m80 55c-0.2 0.98-0.08 3.6 2.3 3.6 2.7 0.03 2.3-2.8 2.2-3.5-0.3-2.1-1.7-2.7-3-2.3-1.3 0.39-1.4 1.8-1.5 2.3z"/>
  <path d="m71 55c-0.04 0.7 0.13 3.1 2.4 3.1 2.5 0.02 2.5-2.7 2.5-3.5-0.02-0.57-0.14-1.4-0.66-2-0.4-0.46-1.5-1.1-2.8-0.44-1.2 0.59-1.3 2.3-1.4 2.8z"/>
  <path d="m88 55c-0.04 0.7 0.13 3.1 2.4 3.1 2.5 0.02 2.5-2.7 2.5-3.5-0.02-0.57-0.14-1.4-0.66-2-0.4-0.46-1.5-1.1-2.8-0.44-1.2 0.59-1.3 2.3-1.4 2.8z"/>
  <path d="m55 56c0.03 0.7 0.42 2.9 2.6 2.9 2.3 0.01 2.2-2.9 2.1-3.7-0.07-0.57-0.27-1.3-0.85-1.9-0.44-0.43-1.6-0.95-2.8-0.21-1.1 0.68-1.1 2.4-1.1 2.9z"/>
  <path d="m22 55c-0.04 0.7 0.15 2.8 2.4 3.1 2.5 0.28 2.6-2.3 2.5-3.5-0.07-0.57-0.65-2.7-2.7-2.5s-2.1 2.4-2.1 2.9z"/>
  <path d="m63 55c-0.04 0.7 0.13 3.1 2.4 3.1 2.5 0.01 2.6-2.3 2.5-3.5-0.07-0.57-0.65-2.7-2.7-2.5-2.1 0.25-2.1 2.4-2.1 2.9z"/>
  <path d="m100 55c-0.04 0.7 0.13 3.1 2.4 3.1 2.5 0.01 2.6-2.3 2.5-3.5-0.07-0.57-0.65-2.7-2.7-2.5-2.1 0.25-2.1 2.4-2.1 2.9z"/>
 </g>
 <g fill="#ff9800">
  <path d="m62 35c-0.2 0.98-0.08 3.6 2.3 3.6 2.7 0.03 2.3-2.8 2.2-3.5-0.3-2.1-1.7-2.7-3-2.3-1.3 0.39-1.4 1.8-1.5 2.3z"/>
  <path d="m77 36c-0.04 0.7 0.13 3.1 2.4 3.1 2.5 0.02 2.5-2.7 2.5-3.5-0.02-0.57-0.14-1.4-0.66-2-0.4-0.46-1.5-1.1-2.8-0.44-1.2 0.59-1.3 2.3-1.4 2.8z"/>
  <path d="m93 36c-0.04 0.7 0.13 3.1 2.4 3.1 2.5 0.02 2.5-2.7 2.5-3.5-0.02-0.57-0.14-1.4-0.66-2-0.4-0.46-1.5-1.1-2.8-0.44-1.2 0.59-1.3 2.3-1.4 2.8z"/>
  <path d="m85 36c-0.04 0.7 0.13 3.1 2.4 3.1 2.5 0.02 2.5-2.7 2.5-3.5-0.02-0.57-0.14-1.4-0.66-2-0.4-0.46-1.5-1.1-2.8-0.44-1.2 0.59-1.3 2.3-1.4 2.8z"/>
  <path d="m54 36c-0.04 0.7 0.13 3.1 2.4 3.1 2.5 0.01 2.6-2.3 2.5-3.5-0.07-0.57-0.65-2.7-2.7-2.5s-2.1 2.4-2.1 2.9z"/>
  <path d="m41 36c-0.04 0.7 0.13 3.1 2.4 3.1 2.5 0.01 2.6-2.3 2.5-3.5-0.07-0.57-0.65-2.7-2.7-2.5-2.1 0.25-2.1 2.4-2.1 2.9z"/>
  <path d="m70 36c-0.04 0.7 0.13 3.1 2.4 3.1 2.5 0.01 2.6-2.3 2.5-3.5-0.07-0.57-0.65-2.7-2.7-2.5s-2.1 2.4-2.1 2.9z"/>
  <path d="m101 36c-0.04 0.7 0.13 3.1 2.4 3.1 2.5 0.01 2.6-2.3 2.5-3.5-0.07-0.57-0.65-2.7-2.7-2.5s-2.1 2.4-2.1 2.9z"/>
  <path d="m22 36c-0.04 0.7 0.13 3.1 2.4 3.1 2.5 0.02 2.5-2.7 2.5-3.5-0.02-0.57-0.14-1.4-0.66-2-0.4-0.46-1.5-1.1-2.8-0.44-1.2 0.59-1.3 2.3-1.4 2.8z"/>
  <path d="m31 35c-0.16 0.69-0.37 3.1 1.8 3.4 2.5 0.36 3-1.9 3-3.1 0.02-0.58-0.19-2.8-2.3-2.8s-2.4 2.1-2.5 2.6z"/>
 </g>
 <g fill="#8bc34a">
  <path d="m68 75c-0.04 0.64 0.15 2.6 2.4 2.8 2.5 0.26 2.5-2.5 2.5-3.2-0.02-0.53-0.14-1.2-0.66-1.8-0.4-0.43-1.5-0.99-2.8-0.41-1.2 0.55-1.3 2.2-1.4 2.6z"/>
  <path d="m84 75c-0.04 0.64 0.15 2.6 2.4 2.8 2.5 0.26 2.5-2.5 2.5-3.2-0.02-0.53-0.14-1.2-0.66-1.8-0.4-0.43-1.5-0.99-2.8-0.41-1.2 0.55-1.3 2.2-1.4 2.6z"/>
  <path d="m76 74c-0.2 0.98-0.08 3.6 2.3 3.6 2.7 0.03 2.3-2.8 2.2-3.5-0.3-2.1-1.7-2.7-3-2.3s-1.4 1.8-1.5 2.3z"/>
  <path d="m92 75c-0.04 0.7 0.13 3.1 2.4 3.1 2.5 0.02 2.5-2.7 2.5-3.5-0.02-0.57-0.14-1.4-0.66-2-0.4-0.46-1.5-1.1-2.8-0.44-1.2 0.59-1.3 2.3-1.4 2.8z"/>
  <path d="m60 75c-0.04 0.7 0.15 2.8 2.4 3.1 2.5 0.28 2.6-2.3 2.5-3.5-0.07-0.57-0.65-2.7-2.7-2.5-2.1 0.25-2.1 2.4-2.1 2.9z"/>
  <path d="m100 75c-0.04 0.7 0.15 2.8 2.4 3.1 2.5 0.28 2.6-2.3 2.5-3.5-0.07-0.57-0.65-2.7-2.7-2.5-2.1 0.25-2.1 2.4-2.1 2.9z"/>
 </g>
 <path d="m92 94c-0.04 0.7 0 3.7 2.4 3.5 2.5-0.25 2.5-2.7 2.4-3.9-0.07-0.57-0.65-2.7-2.7-2.5s-2.1 2.4-2.1 2.9z" fill="#2196f3"/>
 <path d="m100 94c-0.04 0.7 0.15 2.8 2.4 3.1 2.5 0.28 2.6-2.3 2.5-3.5-0.07-0.57-0.65-2.7-2.7-2.5-2.1 0.26-2.1 2.4-2.1 2.9z" fill="#2196f3"/>
</svg>
