<?xml version="1.0" encoding="UTF-8"?>
<svg class="iconify iconify--noto" width="800px" height="800px" aria-hidden="true" role="img" version="1.1" viewBox="0 0 128 128" xmlns="http://www.w3.org/2000/svg">
 <ellipse cx="64" cy="117" rx="12" ry="7.1" fill="#424242"/>
 <path d="m64 4c-21 0-38 16-38 35 0 5 1.5 10 3.8 15 3.1 6.7 6.5 12 7.5 13 2.8 5.1 2.4 10 3.2 14 1.4 6.2 5.8 8.5 24 8.5s22-2.2 23-7.9c1.1-3.9 0.03-8.2 2.8-13 1-1.8 5.1-7.8 8.2-15 2.2-4.8 3.8-10 3.8-15 0.02-19-17-35-38-35z" fill="#ffd600"/>
 <ellipse cx="64" cy="86" rx="22" ry="4.5" fill="#b26500"/>
 <ellipse cx="64" cy="86" rx="22" ry="4.5" fill="#b26500"/>
 <ellipse cx="64" cy="86" rx="16" ry="2.1" fill="#ffa000"/>
 <g fill="none" stroke-miterlimit="10" stroke-width="2">
  <path d="m53 57c-0.62 1.6-2.2 4.8-1.4 6.2 2 3.4 6.6 4.6 6.6 7.6 0 4.7-3.4 20-3.4 20" stroke="#b26500"/>
  <path d="m74 56s2.2 4.8 1.3 7c-0.71 1.6-5 4.2-5.5 4.6-2.6 2 0.84 23 0.84 23" stroke="#b26500"/>
  <path d="m53 57c3.4-6.8 5.2-22 0.84-22-7.4 1.3 1.7 27 6.2 24s10-24 3.2-24 0.46 27 5.1 24c3.6-2.4 13-24 5.2-24-6.2 0 0.19 21 0.19 21" stroke="#fff"/>
 </g>
 <path d="m86 87s-5.8 2.8-22 2.8-22-2.8-22-2.8-0.36 5.1 0.83 7.5c1.4 2.8 2.5 3.8 2.5 3.8l0.6 2.8-0.24 0.75c-0.31 0.98-0.09 2.1 0.6 2.8l0.52 0.58 0.58 2.7-0.2 0.55c-0.38 1-0.12 2.2 0.66 3l0.38 0.39 0.47 2.2s2.4 5.1 15 5.1 15-5.1 15-5.1l0.04-0.19 0.26-0.26c0.52-0.51 0.69-1.3 0.44-2l-0.15-0.39 0.62-3 1.1-1.2c0.54-0.57 0.66-1.4 0.31-2.1l-0.5-0.99 0.63-3 0.4-0.31c0.59-0.65 0.6-1.6 0.34-2.3-0.2-0.53-0.04-1.1 0.37-1.5 0.63-0.6 1.4-1.5 2-2.6 1.2-2.3 0.84-7.4 0.84-7.4z" fill="#82aec0"/>
 <g fill="#2f7889">
  <path d="m45 98 0.54 2.9c5.8-0.03 14 0.26 28-2.1 2.7-0.61 5.9-1.8 2.4-1.3 0-0.01-14 1.3-31 0.56z"/>
  <path d="m47 108c6.4-0.11 20-0.75 34-3.8l0.63-3c-15 3.4-29 4-35 4l0.58 2.8z"/>
  <path d="m80 108c-13 2.8-25 3.6-32 3.7l0.43 2s0.21 6.3 15 6.3 15-6.3 15-6.3-6.4 1.8-14 0.93a0.63 0.63 0 0 1-0.01-1.3c4.7-0.62 10-1.5 15-2.5l0.62-3z"/>
 </g>
 <path d="m42 87s6.5 2.8 22 2.8 22-2.8 22-2.8" fill="none" stroke="#82aec0" stroke-linecap="round" stroke-miterlimit="10" stroke-width="4"/>
 <path d="m50 10c3.9-0.96 8-0.48 11 2.9 0.79 0.96 1.4 2.1 1.5 3.3 0.28 2.4-1.2 4.6-3 6.3-5 4.7-12 7-15 14-0.76 1.5-1.4 3.2-2.5 4.4s-3.1 2-4.6 1.2c-0.8-0.42-1.4-1.2-1.8-2-2.8-5.1-2.6-12-0.13-17 2.8-5.7 8.8-12 15-13z" fill="#ffff8d"/>
 <path d="m46 92c-0.88-0.4-0.53-1.7 0.43-1.6 3.2 0.25 8.7 0.56 16 0.56 7.6 0 14-0.57 18-0.99 0.97-0.1 1.3 1.2 0.45 1.6-3 1.4-8.6 3-18 3-9.2 0-14-1.4-17-2.6z" fill="#ffd600"/>
 <path d="M51.94 102.03c-.67.24-1.36.57-1.7 1.19c-.12.23-.19.49-.14.75c.08.38.43.65.78.82c.7.34 1.49.43 2.26.44c1.59.02 3.17-.28 4.74-.58c.47-.09.95-.18 1.37-.41c.42-.23.78-.62.85-1.09c.1-.63-.35-1.24-.9-1.54c-1.9-1.05-5.34-.27-7.26.42z" fill="#94d1e0"/>
 <path d="M53.43 108.62c-.67.24-1.36.57-1.7 1.19c-.12.23-.19.49-.14.75c.08.38.43.65.78.82c.7.34 1.49.43 2.26.44c1.59.02 3.17-.28 4.74-.58c.47-.09.95-.18 1.37-.41c.42-.23.78-.62.85-1.09c.1-.63-.35-1.24-.9-1.54c-1.9-1.04-5.35-.26-7.26.42z" fill="#94d1e0"/>
 <path d="m50 84c0.91 0.09 1.9 0.01 2.6-0.48s1.3-1.5 0.95-2.4c-0.16-0.45-0.51-0.81-0.85-1.2-0.75-0.74-1.5-1.5-2.2-2.2-0.83-0.83-1.7-1.6-2.6-2.4-1.4-1.2-3.3-2.2-5.1-1.4-1.6 0.72-1.9 2.1-1.2 3.6 1.5 3.1 4.9 6 8.4 6.4z" fill="#ffff8d"/>
</svg>
